<svg width="120" height="120" viewBox="0 0 120 120" fill="none" xmlns="http://www.w3.org/2000/svg">
<path fill-rule="evenodd" clip-rule="evenodd" d="M67.3333 119.556C97.0113 115.94 120 90.6545 120 60C120 26.8629 93.1371 0 60 0C26.8629 0 0 26.8629 0 60C0 89.3797 21.1164 113.827 49 118.994V120H60H67.3333V119.556ZM67.3333 119.556V78H80.6873L82 64H67.3333V58.1655C67.3333 54.823 68.0373 53.5 71.4217 53.5H82V36H68.0373C54.852 36 49 41.5405 49 52.1525V64H38V78H49V118.994C52.566 119.655 56.2427 120 60 120C62.4825 120 64.9299 119.849 67.3333 119.556Z" fill="white"/>
</svg>
