<svg width="161" height="56" viewBox="0 0 161 56" fill="none" xmlns="http://www.w3.org/2000/svg">
<path d="M1.05394 8.73479C1.17526 18.1168 1.29658 19.4311 2.32779 22.8483C2.99505 25.0118 4.51154 28.247 5.66407 29.9454C8.09046 33.5446 12.5388 37.0628 16.5828 38.5996L17.1287 38.8018L16.4817 37.5683L15.8549 36.3349L15.7538 31.8866L15.6527 27.4382L15.0259 28.1459C14.2373 29.0558 13.5498 30.7947 13.3881 32.3718C13.3274 33.0189 13.1859 33.5648 13.105 33.5648C12.8623 33.5648 12.2558 32.291 11.6896 30.6329C11.3256 29.5208 11.2245 28.7929 11.2245 27.2966C11.2245 25.032 11.6087 24.0008 12.9634 22.5248C14.0149 21.3722 14.8641 20.8061 17.4725 19.4311C18.5846 18.8447 19.7169 18.1775 19.9595 17.9348C20.5661 17.3687 21.2132 16.1353 21.2132 15.5287C21.2132 15.1041 21.1929 15.1041 20.9099 15.65C20.3033 16.8025 18.9081 17.5102 16.6637 17.7933C14.763 18.0359 13.8733 18.4403 12.7815 19.5524C12.3366 20.0377 11.8716 20.4219 11.7705 20.4219C11.4874 20.4219 10.5775 19.3907 10.2135 18.6628C10.0316 18.2988 9.89003 17.6922 9.89003 17.308V16.6003L10.9819 16.7216C12.4175 16.8632 12.9432 16.7216 13.6914 15.9533C14.6013 15.0232 14.6215 14.6592 13.752 14.0728C12.094 12.9405 10.7595 12.8192 9.89003 13.7493C9.18233 14.4975 8.89925 14.5177 8.17134 13.7695C7.68606 13.2438 7.6254 13.0416 7.7265 12.3542C7.8276 11.5858 7.78716 11.5251 7.34232 11.5251C5.92693 11.5251 7.0188 10.1906 9.93047 8.37084C10.7999 7.8249 11.5481 7.19808 11.6289 6.97566C11.8311 6.32863 12.9432 5.25698 13.9744 4.73126C15.6527 3.88202 17.978 3.43719 20.9099 3.43719C26.0053 3.43719 27.6431 2.79015 28.189 0.545743L28.3306 -0.000193994H14.6417H0.932617L1.05394 8.73479Z" fill="black"/>
<path d="M112.506 0.120871C112.062 0.161311 110.646 0.30285 109.372 0.424169C108.098 0.525269 106.885 0.666808 106.703 0.727467C106.36 0.828567 106.339 1.92044 106.339 19.9364V39.0239H111.495H116.651L116.692 32.3918L116.753 25.7799L118.532 25.6384C123.001 25.2946 127.085 23.1311 129.693 19.6937C132.099 16.5596 133.009 12.0506 132.019 8.16838C131.25 5.15562 129.633 3.23473 126.64 1.79912C124.092 0.565708 121.969 0.181531 117.258 0.100651C115.095 0.0804312 112.951 0.0804312 112.506 0.120871ZM120.655 8.35036C121.868 9.13894 122.313 10.251 122.293 12.3539C122.273 14.2748 122.091 14.942 121.181 16.2361C120.433 17.2673 119.199 17.9548 117.683 18.1368L116.651 18.2581V12.9403V7.62245L118.249 7.72355C119.543 7.80443 120.028 7.92575 120.655 8.35036Z" fill="black"/>
<path d="M39.0066 0.32331C39.0268 0.42441 38.9864 2.9519 38.9257 5.96466C38.8246 11.9295 38.4404 16.5194 37.6923 20.988C36.4791 28.1661 33.5472 33.6052 28.6136 37.9727L27.4004 39.0242H37.9552H48.5099V31.4417V23.8593L53.8278 23.8997L59.1254 23.9604L59.186 31.4822L59.2265 39.0242H64.4837H69.7408V19.7142V0.40419H64.4837H59.2265V7.88555V15.3669H53.8682H48.5099V7.88555V0.40419H46.953C46.0836 0.40419 43.9403 0.34353 42.2013 0.262651C40.3209 0.201991 39.0066 0.222211 39.0066 0.32331Z" fill="black"/>
<path d="M77.6674 19.6535L77.7281 38.9231L89.0107 38.9837L100.273 39.0242V34.5758V30.1274H94.2073H88.1413V26.9933V23.8593H92.9941H97.8468V19.7344C97.8468 16.0746 97.8064 15.5893 97.5031 15.4882C97.3211 15.4073 95.3396 15.3669 93.1154 15.3669C90.871 15.3669 88.849 15.3871 88.5861 15.3669H88.1211L88.1817 12.2733L88.2424 9.19984L93.6613 9.13918L99.06 9.09874V4.75147V0.404193H88.3435H77.627L77.6674 19.6535Z" fill="black"/>
<path d="M137.517 19.6533L137.578 38.9228L149.265 38.9835L160.932 39.0239V34.5756V30.1272H154.563H148.194V15.2656V0.403949H142.835H137.477L137.517 19.6533Z" fill="black"/>
<path d="M13.1658 7.68325C12.9433 8.06743 12.9636 8.08765 13.7723 8.08765C14.2576 8.08765 14.7833 8.00677 14.9451 7.88545C15.1675 7.74391 15.1271 7.66303 14.6822 7.50127C13.8532 7.17775 13.4488 7.23841 13.1658 7.68325Z" fill="black"/>
<path d="M47.3373 49.2758C47.398 53.2591 47.398 53.2793 47.863 53.34L48.3079 53.4006V49.3567V45.2925H47.8024H47.2969L47.3373 49.2758Z" fill="black"/>
<path d="M61.1679 46.5054L61.3094 47.7186H60.5411C58.9437 47.7186 57.9125 48.6285 57.8114 50.1449C57.7103 51.5603 57.8114 52.1467 58.3371 52.7533C58.7617 53.279 59.0043 53.3801 59.712 53.3801C60.1771 53.3801 60.6826 53.2588 60.8039 53.1375C61.0061 52.9353 61.1072 52.9353 61.2285 53.1577C61.4105 53.4206 62.0778 53.4003 62.0778 53.1173C62.0575 53.0364 62.0575 51.2368 62.0575 49.134V45.2922H61.552C61.0263 45.2922 61.0263 45.3124 61.1679 46.5054ZM61.2083 50.3876C61.269 52.0861 61.2488 52.1669 60.7433 52.4905C60.3389 52.7533 60.076 52.7938 59.6716 52.6522C58.9032 52.3894 58.5797 51.6614 58.6808 50.4078C58.7819 48.9924 59.2268 48.4869 60.3186 48.5678L61.1477 48.6285L61.2083 50.3876Z" fill="black"/>
<path d="M71.8435 46.0403C71.9042 46.4649 71.9648 48.2847 71.9648 50.0843C71.9648 53.2386 71.9851 53.3801 72.3692 53.3801C72.7534 53.3801 72.7736 53.2386 72.7736 49.3361V45.2922H72.2479C71.7424 45.2922 71.7222 45.3326 71.8435 46.0403Z" fill="black"/>
<path d="M127.57 46.5054V47.7186H126.963C125.831 47.7186 124.961 48.2443 124.537 49.1744C124.314 49.6597 124.132 50.3471 124.132 50.7111C124.132 51.5199 124.618 52.7331 125.103 53.097C125.527 53.4408 126.64 53.461 127.226 53.1577C127.549 52.9757 127.671 52.9757 127.731 53.1577C127.772 53.279 127.974 53.3801 128.197 53.3801C128.56 53.3801 128.581 53.1779 128.581 49.3361V45.2922H128.075C127.59 45.2922 127.57 45.3528 127.57 46.5054ZM127.57 50.4482C127.57 52.3287 127.549 52.3894 127.044 52.5713C126.316 52.8544 126.195 52.8342 125.649 52.268C125.244 51.8636 125.143 51.5806 125.143 50.6909C125.143 49.2148 125.669 48.5274 126.781 48.5274H127.57V50.4482Z" fill="black"/>
<path d="M146.516 45.5752C146.394 45.8987 146.597 46.1009 147.527 46.5862C148.902 47.2737 149.043 46.6671 147.688 45.8381C146.617 45.191 146.657 45.2113 146.516 45.5752Z" fill="black"/>
<path d="M102.78 45.9999C102.699 46.1819 102.78 46.465 102.962 46.6469C103.387 47.0716 103.953 46.8289 103.872 46.2628C103.791 45.6966 102.962 45.4944 102.78 45.9999Z" fill="black"/>
<path d="M143.221 46C143.039 46.4651 143.281 46.9099 143.726 46.9099C144.13 46.9099 144.474 46.2629 144.252 45.8989C144.07 45.5956 143.342 45.6563 143.221 46Z" fill="black"/>
<path d="M0.993164 49.7405C0.993164 53.2184 1.01338 53.3801 1.39756 53.3801C1.7413 53.3801 1.78174 53.2184 1.8424 51.7019L1.90306 50.0438H3.52065H5.13824L5.1989 51.7019C5.25956 53.2184 5.3 53.3801 5.64374 53.3801C6.02791 53.3801 6.04813 53.2184 6.04813 49.7405C6.04813 46.2627 6.02791 46.101 5.64374 46.101C5.3 46.101 5.25956 46.2627 5.1989 47.6579L5.13824 49.2351H3.52065H1.90306L1.8424 47.6579C1.78174 46.2627 1.7413 46.101 1.39756 46.101C1.01338 46.101 0.993164 46.2627 0.993164 49.7405Z" fill="black"/>
<path d="M31.6669 46.2223C31.5861 46.3032 31.5254 47.941 31.5254 49.8821V53.3801H33.3452C35.0234 53.3801 35.165 53.3599 35.165 52.9757C35.165 52.6118 35.0234 52.5713 33.8507 52.5713H32.5364V51.257V49.9427H33.6485C34.4775 49.9427 34.7606 49.8619 34.7606 49.6597C34.7606 49.4373 34.4573 49.3362 33.7091 49.2957L32.6375 49.2351L32.5768 48.0623L32.5162 46.9098H33.8507C35.0234 46.9098 35.1852 46.8693 35.1245 46.5458C35.0639 46.2627 34.801 46.2021 33.4261 46.1414C32.5364 46.1212 31.7478 46.1414 31.6669 46.2223Z" fill="black"/>
<path d="M82.9241 46.2629C82.7422 46.4045 82.6815 47.2537 82.7219 49.8621C82.7826 53.2388 82.7826 53.2792 83.2477 53.3399C83.6723 53.4005 83.6925 53.3399 83.6925 51.884V50.3473H84.2991C85.674 50.3473 86.7255 49.3566 86.7255 48.0625C86.7255 47.0313 86.4626 46.5864 85.6943 46.3236C84.9461 46.0607 83.3083 46.0405 82.9241 46.2629ZM85.209 46.9504C86.6042 47.5772 85.7549 49.7407 84.0969 49.7407C83.7329 49.7407 83.6925 49.6194 83.6925 48.2243C83.6925 46.7482 83.7127 46.7078 84.198 46.7078C84.4608 46.7078 84.9259 46.8089 85.209 46.9504Z" fill="black"/>
<path d="M138.488 49.7405V53.3801H140.308C141.986 53.3801 142.128 53.3599 142.128 52.9757C142.128 52.6118 141.986 52.5713 140.712 52.5713H139.297V49.3362C139.297 46.2425 139.277 46.101 138.893 46.101C138.509 46.101 138.488 46.2425 138.488 49.7405Z" fill="black"/>
<path d="M19.9391 46.849C19.8582 46.9097 19.7976 47.1523 19.7976 47.3747C19.7976 47.5769 19.6156 47.7993 19.3932 47.86C19.1707 47.9207 18.9888 48.1026 18.9888 48.2442C18.9888 48.4059 19.1707 48.5273 19.3932 48.5273C19.7773 48.5273 19.7976 48.6688 19.7976 50.3471C19.7976 52.9352 20.1817 53.5216 21.7387 53.3396C22.4868 53.2587 22.5475 52.6723 21.8196 52.6723C20.9097 52.6723 20.8086 52.4701 20.8086 50.4279V48.5273H21.5163C22.0824 48.5273 22.224 48.4464 22.224 48.1229C22.224 47.7993 22.0824 47.7185 21.5163 47.7185C20.8894 47.7185 20.8086 47.6578 20.8086 47.213C20.8086 46.849 20.7075 46.7075 20.4446 46.7075C20.2424 46.7075 19.9998 46.7681 19.9391 46.849Z" fill="black"/>
<path d="M8.43394 47.941C7.76668 48.3252 8.23174 48.6891 9.22252 48.5678C10.2739 48.4465 10.6986 48.7902 10.6986 49.7608C10.6986 50.2258 10.5975 50.3269 9.95043 50.428C8.63614 50.6504 8.11042 50.9537 7.888 51.5806C7.64536 52.2883 7.86778 53.0566 8.37328 53.2588C8.97988 53.4812 9.95043 53.3801 10.3346 53.0566C10.6581 52.7331 10.6986 52.7331 10.8199 53.0566C10.8805 53.2386 11.103 53.3801 11.3052 53.3801C11.6287 53.3801 11.6489 53.1779 11.568 50.9942C11.4871 48.7902 11.4467 48.588 10.9816 48.1634C10.4357 47.6781 9.08098 47.5568 8.43394 47.941ZM10.6986 51.6412C10.6986 52.2074 10.5975 52.3691 10.0718 52.5713C9.30339 52.8948 8.77768 52.6522 8.77768 51.9445C8.77768 51.4188 9.46515 50.9537 10.2537 50.9537C10.6177 50.9537 10.6986 51.0548 10.6986 51.6412Z" fill="black"/>
<path d="M13.5696 50.1653C13.6303 52.4501 13.6707 52.6321 14.1156 52.9961C14.6817 53.4611 15.8949 53.5016 16.5218 53.0567C16.9261 52.7736 16.9666 52.7736 16.9666 53.0769C16.9666 53.2994 17.1081 53.3802 17.4316 53.3398C17.6743 53.2994 17.8563 53.2185 17.836 53.1174C17.7956 53.0365 17.7754 51.8031 17.7754 50.3473V47.7187H17.2901H16.7846L16.9059 49.9226L17.0272 52.1266L16.4004 52.4501C14.8839 53.2387 14.5402 52.7534 14.5402 49.9226V47.7187H14.0145H13.4888L13.5696 50.1653Z" fill="black"/>
<path d="M24.1854 48.204C22.8307 49.4778 23.0935 52.531 24.6505 53.178C25.2166 53.4207 27.1375 53.3802 27.3802 53.1376C27.4408 53.0769 27.4408 52.895 27.3802 52.713C27.2791 52.4704 27.1173 52.4501 26.6118 52.5917C25.3177 52.9556 24.2461 52.1671 24.2461 50.8528C24.2461 50.3675 24.2865 50.3473 25.8637 50.3473C27.4206 50.3473 27.4813 50.327 27.4813 49.862C27.4813 49.1139 27.0769 48.1231 26.6725 47.9209C25.9648 47.5367 24.7516 47.6782 24.1854 48.204ZM26.3489 48.7701C26.9151 49.5789 26.7736 49.7407 25.4593 49.7407C24.1247 49.7407 23.9428 49.5385 24.6505 48.7701C25.1964 48.204 25.9648 48.204 26.3489 48.7701Z" fill="black"/>
<path d="M37.6924 47.941C36.9847 48.3049 36.5197 49.1542 36.4186 50.2865C36.2568 52.2478 37.1263 53.3801 38.7843 53.3801C39.2898 53.3801 39.8155 53.2992 39.957 53.2184C40.4019 52.9353 39.9166 52.6118 39.0674 52.632C38.4406 52.6522 38.0766 52.5511 37.7733 52.2276C37.1869 51.6614 37.0454 50.2056 37.47 49.3766C37.8137 48.7296 38.1373 48.588 39.4111 48.4869C39.8762 48.4465 40.1188 48.3252 40.1188 48.123C40.1188 47.759 38.3192 47.6175 37.6924 47.941Z" fill="black"/>
<path d="M41.9389 48.2041C40.8268 49.3162 40.7662 51.7426 41.8378 52.8142C42.8286 53.7848 44.6484 53.5421 45.3561 52.3289C45.8212 51.5606 45.8414 49.6195 45.3965 48.7702C44.9719 47.9614 44.5069 47.7188 43.3543 47.7188C42.6466 47.7188 42.3029 47.8401 41.9389 48.2041ZM44.4664 48.8511C44.6888 49.0533 44.7697 49.579 44.7697 50.5698C44.7697 51.8234 44.7091 52.0459 44.2844 52.3896C43.6576 52.9153 43.1319 52.8749 42.5455 52.2683C42.1209 51.8639 42.04 51.5808 42.04 50.5496C42.04 49.4981 42.1209 49.2353 42.5658 48.8107C43.1117 48.2445 43.8598 48.2647 44.4664 48.8511Z" fill="black"/>
<path d="M50.6931 48.3049C50.0461 48.8913 50.0259 48.9318 50.0259 50.5493C50.0259 52.1669 50.0461 52.2074 50.6931 52.7938C51.2391 53.279 51.5222 53.3801 52.4118 53.3801C53.6048 53.3801 54.0901 53.1577 53.9081 52.6927C53.807 52.4298 53.6857 52.4096 53.2408 52.5916C52.0479 53.0364 50.7336 52.1467 50.7336 50.9335V50.3471H52.3512H53.9688V49.5383C53.9688 47.7792 52.0681 47.0715 50.6931 48.3049ZM52.796 48.6689C52.9982 48.8509 53.16 49.1542 53.16 49.3766C53.16 49.6799 52.9982 49.7405 51.9468 49.7405C51.2795 49.7405 50.7336 49.6597 50.7336 49.5586C50.7336 49.4777 50.9156 49.1542 51.1582 48.8509C51.6232 48.2443 52.2501 48.1836 52.796 48.6689Z" fill="black"/>
<path d="M64.7057 48.0423C64.4428 48.2243 64.1193 48.6894 63.9576 49.0533C63.3914 50.4283 63.7554 52.3694 64.7057 53.0569C65.2112 53.4006 67.0108 53.5017 67.496 53.1984C67.6578 53.0973 67.7185 52.8749 67.6578 52.6929C67.5567 52.4503 67.4152 52.4098 67.0108 52.5716C65.838 53.0164 64.8472 52.3694 64.5641 50.9944L64.4428 50.3474H66.202H67.9611L67.8196 49.4779C67.6174 48.285 67.0512 47.7188 65.9998 47.7188C65.5549 47.7188 64.9685 47.8603 64.7057 48.0423ZM66.667 48.568C66.8086 48.7096 66.9097 49.0129 66.9097 49.2757C66.9097 49.7004 66.8288 49.7408 65.7976 49.7408C64.5641 49.7408 64.362 49.4577 65.0899 48.7298C65.5347 48.285 66.3031 48.2041 66.667 48.568Z" fill="black"/>
<path d="M75.0584 47.9208C74.2496 48.2443 74.6944 48.6891 75.7054 48.5678C76.8175 48.4465 77.2219 48.7498 77.2219 49.6394C77.2219 50.3269 76.8984 50.5493 75.8874 50.5493C75.6447 50.5493 75.2201 50.7313 74.9168 50.974C74.2698 51.4795 74.1889 52.5309 74.7551 53.0364C75.1797 53.4408 76.2513 53.4812 76.8782 53.1577C77.2017 52.9757 77.323 52.9757 77.3837 53.1577C77.4241 53.279 77.6263 53.3801 77.8487 53.3801C78.2127 53.3801 78.2329 53.2184 78.2329 51.257C78.2329 49.0329 77.9903 48.1027 77.323 47.8399C76.8579 47.6579 75.5841 47.7186 75.0584 47.9208ZM77.1815 51.7019C77.141 52.3287 77.0197 52.4905 76.5546 52.6522C75.8469 52.9151 75.301 52.6118 75.301 51.9445C75.301 51.4188 75.9885 50.9537 76.7771 50.9537C77.2017 50.9537 77.2421 51.0346 77.1815 51.7019Z" fill="black"/>
<path d="M88.1411 50.5493V53.3801H88.6466H89.1521V51.1762V48.952L89.8598 48.7093C90.3046 48.5476 90.5675 48.3049 90.5675 48.0825C90.5675 47.6377 90.1833 47.6175 89.6374 48.0219C89.1319 48.406 88.9499 48.406 88.9499 48.0219C88.9499 47.8601 88.7679 47.7186 88.5455 47.7186C88.1613 47.7186 88.1411 47.8601 88.1411 50.5493Z" fill="black"/>
<path d="M92.185 48.2849C91.538 48.932 91.2347 50.2665 91.4773 51.4797C91.8008 53.2995 93.8835 54.0274 95.2382 52.8142C95.7639 52.3491 95.9054 52.0458 95.9863 51.1966C96.2087 48.8511 95.4808 47.7188 93.7621 47.7188C92.9331 47.7188 92.6703 47.8199 92.185 48.2849ZM94.2676 48.5073C95.6224 49.0331 95.4606 52.3491 94.0857 52.6929C92.4681 53.0973 91.5177 49.8419 92.9533 48.7298C93.5195 48.2647 93.6004 48.2647 94.2676 48.5073Z" fill="black"/>
<path d="M97.0376 47.9612C97.0376 48.1027 97.4218 49.3766 97.8868 50.792C98.6147 53.0162 98.7967 53.3801 99.1607 53.3801C99.5246 53.3801 99.7268 52.9757 100.536 50.6909C101.061 49.2351 101.486 47.9612 101.486 47.8601C101.486 47.7792 101.344 47.7186 101.183 47.7186C100.859 47.7186 100.374 48.6689 99.7673 50.5493C99.5853 51.1559 99.3427 51.7423 99.2618 51.8232C99.1809 51.9243 98.8169 51.0346 98.453 49.8619C97.9273 48.1634 97.7049 47.7186 97.4016 47.7186C97.1994 47.7186 97.0376 47.8197 97.0376 47.9612Z" fill="black"/>
<path d="M102.881 47.7994C102.841 47.8399 102.82 49.1137 102.861 50.6302C102.922 53.1981 102.942 53.3801 103.326 53.3801C103.69 53.3801 103.71 53.2184 103.71 50.5493C103.71 47.941 103.69 47.7186 103.346 47.7186C103.144 47.7186 102.922 47.759 102.881 47.7994Z" fill="black"/>
<path d="M105.772 50.4887C105.833 53.1173 105.853 53.279 106.237 53.279C106.601 53.279 106.642 53.1173 106.743 51.0548C106.844 48.8913 106.864 48.8307 107.39 48.5678C108.077 48.2443 108.866 48.5274 109.028 49.1744C109.109 49.4372 109.169 50.4887 109.169 51.4997C109.169 53.2386 109.189 53.3801 109.574 53.3801C109.958 53.3801 109.978 53.2386 109.978 51.0751C109.978 49.0733 109.917 48.7093 109.553 48.2443C109.23 47.8399 108.967 47.7186 108.34 47.7186C107.895 47.7186 107.349 47.8399 107.127 47.9612C106.783 48.1634 106.662 48.1634 106.601 47.9612C106.541 47.8399 106.338 47.7186 106.116 47.7186C105.732 47.7186 105.732 47.8601 105.772 50.4887Z" fill="black"/>
<path d="M112.708 48.1635C111.293 49.2756 111.232 52.0861 112.627 53.0567C113.113 53.4004 114.73 53.5015 115.175 53.2185C115.62 52.9354 115.135 52.6119 114.306 52.6321C113.841 52.6523 113.315 52.5512 113.153 52.3894C112.688 52.0053 112.344 50.8325 112.486 50.0642C112.688 48.9723 113.052 48.6488 114.245 48.5274C115.074 48.4466 115.357 48.3455 115.398 48.0624C115.499 47.5165 113.456 47.5771 112.708 48.1635Z" fill="black"/>
<path d="M117.44 47.9816C116.045 49.0734 115.984 52.1671 117.379 53.077C118.026 53.5016 120.493 53.4409 120.493 52.9961C120.473 52.5108 120.129 52.3693 119.523 52.5917C118.35 52.9961 117.379 52.3086 117.218 50.9539C117.157 50.4484 117.177 50.4484 118.835 50.3877L120.493 50.3271V49.7205C120.493 48.9724 120.028 48.022 119.583 47.84C119.037 47.6378 117.784 47.7187 117.44 47.9816ZM119.361 48.7702C119.927 49.5789 119.786 49.7407 118.471 49.7407C117.137 49.7407 116.955 49.5385 117.662 48.7702C118.208 48.204 118.977 48.204 119.361 48.7702Z" fill="black"/>
<path d="M131.169 48.123C130.421 48.7093 130.137 49.5586 130.239 50.974C130.319 52.0658 130.4 52.3085 130.966 52.7938C131.512 53.279 131.795 53.3801 132.685 53.3801C133.878 53.3801 134.363 53.1577 134.181 52.6927C134.08 52.4298 133.959 52.4096 133.514 52.5916C132.341 53.0364 131.29 52.3691 131.068 51.0751L130.946 50.3471H132.604H134.242V49.5383C134.242 47.941 132.442 47.112 131.169 48.123ZM133.11 48.6487C133.292 48.8104 133.433 49.134 133.433 49.3564C133.433 49.7001 133.292 49.7405 132.22 49.7405C131.553 49.7405 131.007 49.6597 131.007 49.5586C131.007 49.4777 131.189 49.1542 131.431 48.8509C131.897 48.2645 132.645 48.1634 133.11 48.6487Z" fill="black"/>
<path d="M143.22 48.6487C143.281 49.1744 143.341 50.4482 143.341 51.4795C143.341 53.2386 143.362 53.3801 143.746 53.3801C144.13 53.3801 144.15 53.2386 144.15 50.5493V47.7186H143.624C143.099 47.7186 143.078 47.7388 143.22 48.6487Z" fill="black"/>
<path d="M146.799 48.0423C146.536 48.2243 146.213 48.6894 146.051 49.0533C145.485 50.4283 145.849 52.3694 146.799 53.0569C147.304 53.4006 149.104 53.5017 149.589 53.1984C149.751 53.0973 149.812 52.8749 149.751 52.6929C149.65 52.43 149.529 52.4098 149.084 52.5918C147.911 53.0366 146.577 52.0863 146.577 50.7922C146.577 50.3676 146.657 50.3474 148.194 50.3474H149.812V49.5588C149.812 48.3861 149.185 47.7188 148.113 47.7188C147.648 47.7188 147.062 47.8603 146.799 48.0423ZM148.619 48.5276C148.841 48.6489 149.003 48.9522 149.003 49.2353C149.003 49.7206 148.942 49.7408 147.81 49.7408C146.698 49.7408 146.617 49.7004 146.718 49.3364C146.839 48.8916 147.527 48.3254 147.951 48.3254C148.093 48.3254 148.396 48.4265 148.619 48.5276Z" fill="black"/>
<path d="M151.712 48.2242C151.106 48.8308 151.065 49.9024 151.611 50.5697C151.975 51.0347 151.975 51.055 151.591 51.5807C151.247 52.0255 151.227 52.1873 151.429 52.5715C151.611 52.9152 151.611 53.077 151.348 53.36C151.166 53.5622 151.025 54.0475 151.025 54.4519C151.025 55.4022 151.591 55.8066 152.905 55.8066C154.705 55.8066 155.959 54.8361 155.837 53.5218C155.756 52.6928 155.13 52.3693 153.512 52.3693C152.218 52.3693 151.955 52.2277 152.157 51.6818C152.238 51.4594 152.541 51.3583 153.087 51.3583C153.714 51.3583 154.017 51.2167 154.503 50.7517C155.049 50.1855 155.109 50.0238 155.008 49.2352C154.927 48.3859 154.948 48.3253 155.392 48.3253C155.655 48.3253 155.878 48.204 155.878 48.0624C155.878 47.8804 155.352 47.7996 154.038 47.7793C152.339 47.7389 152.177 47.7591 151.712 48.2242ZM154.017 48.5679C154.644 49.1947 154.058 50.7517 153.188 50.7517C152.198 50.7517 151.652 49.3363 152.359 48.6488C152.723 48.2646 153.674 48.2242 154.017 48.5679ZM155.049 53.4611C155.615 54.1284 154.321 55.2 152.966 55.2C152.036 55.2 151.45 54.4519 151.793 53.6836C152.016 53.2185 152.137 53.1781 153.431 53.1781C154.381 53.1781 154.887 53.2589 155.049 53.4611Z" fill="black"/>
<path d="M157.88 47.9814C157.172 48.5274 156.828 49.3564 156.828 50.5089C156.828 52.632 157.738 53.5217 159.72 53.3397C160.872 53.2184 160.993 53.1577 160.832 52.7129C160.731 52.4703 160.569 52.45 160.063 52.5916C158.769 52.9555 157.698 52.167 157.698 50.8527C157.698 50.3674 157.738 50.3472 159.315 50.3472H160.933V49.7406C160.933 48.9924 160.468 48.0219 160.023 47.8399C159.477 47.6377 158.223 47.7186 157.88 47.9814ZM159.8 48.77C160.367 49.5788 160.225 49.7406 158.911 49.7406C157.576 49.7406 157.394 49.5384 158.102 48.77C158.648 48.2039 159.416 48.2039 159.8 48.77Z" fill="black"/>
</svg>
