<svg width="105" height="160" viewBox="0 0 105 160" fill="none" xmlns="http://www.w3.org/2000/svg">
<path d="M100.85 127.251C101.274 127.038 101.604 126.873 102.051 126.638C102.947 127.817 103.866 128.995 104.902 130.339C98.3755 135.291 91.8957 140.219 85.3687 145.17C84.4026 143.897 83.5072 142.694 82.5411 141.445C82.8475 141.114 83.1302 140.832 83.3658 140.596C82.3998 139.228 81.5043 137.908 80.5854 136.611C79.0774 134.489 79.3366 132.343 81.3865 130.764C84.9446 128.029 88.5262 125.317 92.1077 122.606C94.1577 121.073 96.3962 121.403 97.975 123.407C98.8939 124.657 99.8129 125.883 100.85 127.251Z" fill="black"/>
<path d="M84.0495 109.873C79.6197 104.38 73.3048 100.301 69.3933 94.5476C64.8927 87.8986 57.3054 82.1456 58.7192 72.738C61.5939 53.5691 57.8945 46.4486 40.1279 38.8093C36.617 37.3003 32.9412 36.1922 29.501 34.5653C19.8401 29.9912 13.2425 22.7056 10.9097 12.0719C10.4384 9.97348 10.6505 7.70999 10.6034 5.51724C10.5563 3.67816 10.6034 1.83908 10.6034 0C6.62123 12.7793 7.94076 24.5682 18.9919 33.0799C24.3407 37.1824 30.5378 40.3183 36.617 43.2891C49.3882 49.5609 52.5221 54.8187 50.2601 68.5883C49.8831 70.8046 47.9273 74.3884 46.49 74.5063C43.3796 74.7421 39.7745 73.7047 37.0176 72.1014C34.8498 70.8518 34.0015 67.3622 31.8809 65.9475C29.8544 64.6036 26.9326 64.6508 24.3878 64.0849C23.9637 66.3248 23.2568 68.5647 23.1625 70.8282C22.8326 78.3024 25.3303 84.3383 34.8027 87.8986C23.4924 87.4271 22.4556 96.5517 17.1539 100.584C11.6402 104.78 6.33847 107.492 0 112.585V160L10.5798 154.931C16.2114 152.243 21.089 151.205 24.0344 148.235C31.1033 141.138 37.1826 133.05 43.8745 125.576C45.6417 123.596 48.4222 120.79 50.3779 121.049C58.6957 122.157 67.0841 123.619 75.0249 126.213C81.599 128.335 85.6518 124.468 88.2438 120.766C89.4926 118.927 86.4765 112.915 84.0495 109.873ZM54.2658 98.603C52.3101 100.749 48.9641 100.914 46.8199 98.9567C44.6756 96.9997 44.5107 93.6516 46.4664 91.506C48.4221 89.3604 51.7681 89.1954 53.9124 91.1524C56.0566 93.1093 56.2215 96.4574 54.2658 98.603Z" fill="black"/>
</svg>
