<svg width="165" height="185" viewBox="0 0 165 185" fill="none" xmlns="http://www.w3.org/2000/svg">
<path d="M159.693 140.39C160.161 140.156 160.525 139.974 161.019 139.714C162.007 141.014 163.02 142.315 164.164 143.797C156.963 149.26 149.814 154.697 142.613 160.159C141.548 158.755 140.56 157.428 139.494 156.049C139.832 155.685 140.144 155.373 140.404 155.113C139.338 153.604 138.35 152.147 137.336 150.717C135.672 148.376 135.958 146.009 138.22 144.266C142.146 141.248 146.097 138.257 150.048 135.265C152.31 133.575 154.78 133.939 156.521 136.15C157.535 137.528 158.549 138.881 159.693 140.39Z" fill="black"/>
<path d="M141.158 121.218C136.271 115.157 129.304 110.657 124.988 104.31C120.023 96.9747 111.652 90.6276 113.212 80.2486C116.384 59.1005 112.302 51.2447 92.7011 42.8166C88.8277 41.1518 84.7723 39.9292 80.9768 38.1344C70.3184 33.0879 63.0395 25.0501 60.4659 13.3184C59.946 11.0033 60.1799 8.5061 60.1279 6.08693C60.076 4.05795 60.1279 2.02898 60.1279 0C55.7346 14.0988 57.1904 27.1051 69.3826 36.4956C75.2837 41.0218 82.1207 44.4814 88.8277 47.759C102.918 54.6783 106.375 60.4791 103.879 75.6704C103.463 78.1156 101.306 82.0695 99.72 82.1996C96.2886 82.4597 92.3112 81.3151 89.2696 79.5463C86.878 78.1676 85.9421 74.3178 83.6024 72.757C81.3668 71.2743 78.1433 71.3263 75.3357 70.702C74.8677 73.1732 74.0879 75.6444 73.9839 78.1416C73.6199 86.3876 76.3755 93.0468 86.826 96.9747C74.3478 96.4544 73.204 106.521 67.3549 110.969C61.2718 115.6 55.4226 118.591 48.4297 124.21V176.521L60.1019 170.928C66.315 167.963 71.6962 166.818 74.9457 163.541C82.7446 155.711 89.4516 146.789 96.8345 138.543C98.7842 136.358 101.852 133.262 104.009 133.548C113.186 134.771 122.441 136.384 131.201 139.245C138.454 141.586 142.926 137.32 145.785 133.236C147.163 131.207 143.835 124.574 141.158 121.218ZM108.299 108.784C106.141 111.152 102.45 111.334 100.084 109.175C97.7183 107.016 97.5364 103.322 99.694 100.955C101.852 98.5875 105.543 98.4054 107.909 100.564C110.274 102.723 110.456 106.417 108.299 108.784Z" fill="black"/>
<path d="M14.4273 176.782C24.7218 176.782 34.9643 176.782 45.2067 176.782V142.523C34.1584 142.523 23.11 142.523 11.8017 142.523C15.1292 137.919 17.9368 133.731 21.1083 129.803C21.8622 128.867 23.682 128.528 25.0338 128.398C31.7668 127.748 38.4738 127.436 45.2067 127.462V124.497C37.9278 124.444 30.6229 124.861 23.344 125.771C21.3943 126.005 19.2366 127.462 17.9108 128.971C15.4672 131.754 13.5955 135.032 11.3858 138.049C10.8659 138.777 10.008 139.22 8.76018 140.234C8.76018 138.491 8.91616 137.607 8.70819 136.826C8.55221 136.254 7.87631 135.344 7.48637 135.37C5.48467 135.578 3.43097 135.786 1.55925 136.436C-0.130496 137.009 -0.494442 138.647 0.70138 139.948C1.58525 140.91 2.96304 141.613 4.26285 142.003C5.58865 142.419 7.07043 142.289 8.81217 142.445C8.24026 143.538 7.82432 144.344 7.40838 145.15C4.65279 150.613 1.74123 156.128 1.35128 162.345C0.935345 168.77 1.19531 175.247 1.2213 181.724C1.2213 183.415 2.13117 184.429 3.8989 184.429C6.44652 184.429 8.99414 184.429 11.5418 184.429C13.5695 184.429 14.4533 183.363 14.4533 181.412C14.4013 179.929 14.4273 178.42 14.4273 176.782ZM11.2558 159.327C8.81217 158.989 8.11028 158.001 8.31825 155.243C8.47422 153.084 9.12413 152.59 12.5556 152.694C16.689 153.032 21.3423 154.125 24.7478 158.105C25.2937 158.729 25.4237 159.717 25.7616 160.524C24.9818 160.654 24.1499 160.966 23.396 160.888C19.3406 160.42 15.2852 159.874 11.2558 159.327Z" fill="#82146B"/>
</svg>
