<svg width="120" height="120" viewBox="0 0 120 120" fill="none" xmlns="http://www.w3.org/2000/svg">
<path fill-rule="evenodd" clip-rule="evenodd" d="M60 120C93.1371 120 120 93.1371 120 60C120 26.8629 93.1371 0 60 0C26.8629 0 0 26.8629 0 60C0 93.1371 26.8629 120 60 120ZM75.0604 28.1642C70.9987 27.9781 69.7795 27.9396 59.5 27.9396C49.2205 27.9396 48.0045 27.9781 43.9428 28.161C33.4997 28.6358 28.639 33.5895 28.161 43.9428C27.9781 48.0045 27.9364 49.2205 27.9364 59.5C27.9364 69.7827 27.9749 70.9987 28.161 75.0572C28.6358 85.3913 33.4836 90.3642 43.9428 90.8422C48.0013 91.0283 49.2205 91.0668 59.5 91.0668C69.7859 91.0668 70.9987 91.0283 75.0604 90.8422C85.5035 90.3674 90.3642 85.4073 90.8422 75.0604C91.0251 71.0019 91.0636 69.7859 91.0636 59.5032C91.0636 49.2237 91.0283 48.0045 90.8422 43.946C90.3674 33.5895 85.4939 28.639 75.0604 28.1642ZM43.6284 21.231C47.735 21.0449 49.044 21 59.5 21C69.956 21 71.2682 21.0449 75.378 21.2342C89.3728 21.8759 97.1402 29.6593 97.769 43.6284C97.9551 47.735 98 49.044 98 59.5C98 69.956 97.9551 71.2682 97.7658 75.3748C97.1338 89.3696 89.3439 97.1273 75.3748 97.769C71.2682 97.9551 69.956 98 59.5 98C49.044 98 47.735 97.9551 43.6252 97.769C29.6304 97.1273 21.8727 89.3568 21.231 75.3748C21.0449 71.2682 21 69.956 21 59.5C21 49.044 21.0449 47.735 21.2342 43.6252C21.8759 29.6304 29.6465 21.8727 43.6284 21.231ZM39.7302 59.5C39.7302 48.582 48.582 39.7302 59.5 39.7302C70.418 39.7302 79.2698 48.582 79.2698 59.5C79.2698 70.4212 70.418 79.273 59.5 79.273C48.582 79.273 39.7302 70.418 39.7302 59.5ZM46.6667 59.5C46.6667 66.5904 52.4128 72.3333 59.5 72.3333C66.5872 72.3333 72.3333 66.5904 72.3333 59.5C72.3333 52.4128 66.5872 46.6667 59.5 46.6667C52.4128 46.6667 46.6667 52.4128 46.6667 59.5ZM75.4294 38.9506C75.4294 36.4 77.4987 34.3306 80.0526 34.3306C82.6032 34.3306 84.6694 36.4 84.6694 38.9506C84.6694 41.5012 82.6032 43.5706 80.0526 43.5706C77.4987 43.5706 75.4294 41.5012 75.4294 38.9506Z" fill="white"/>
</svg>
