<svg width="81" height="80" viewBox="0 0 81 80" fill="none" xmlns="http://www.w3.org/2000/svg">
<path fill-rule="evenodd" clip-rule="evenodd" d="M0.932617 0H24.9326L44.4326 53.5L80.9326 39.5V80H0.932617V0ZM80.9326 39.5L63.4326 26.9094L80.9326 20.4906V39.5ZM24.9326 0L43.6826 13L78.1826 0H24.9326ZM80.9326 19.2563V0L44.4326 13.825L62.1826 26.1688L80.9326 19.2563ZM10.9467 61.1663V56.1818H5.02344V78H10.9467V74.0691C11.0725 74.3347 11.2142 74.5867 11.3718 74.8253C12.1531 75.9901 13.2468 76.853 14.6531 77.4141C16.0664 77.9751 17.7212 78.2557 19.6175 78.2557C21.4641 78.2557 23.0444 77.9965 24.3583 77.478C25.6793 76.9595 26.695 76.2031 27.4052 75.2088C27.6337 74.8889 27.8258 74.5463 27.9815 74.1808C28.0934 74.4056 28.217 74.6204 28.3523 74.8253C29.1335 75.9901 30.2273 76.853 31.6335 77.4141C33.0469 77.9751 34.7017 78.2557 36.598 78.2557C38.4446 78.2557 40.0249 77.9965 41.3388 77.478C42.6598 76.9595 43.6754 76.2031 44.3857 75.2088C44.6472 74.8427 44.861 74.4467 45.0272 74.0209C45.0868 74.1494 45.1495 74.2755 45.2156 74.3991C45.8974 75.6562 46.8668 76.6222 48.1239 77.2969C49.3881 77.9645 50.8938 78.2983 52.641 78.2983C54.1538 78.2983 55.4748 78.071 56.604 77.6165C57.7404 77.1548 58.6531 76.5085 59.342 75.6776C59.5805 75.3874 59.7887 75.0794 59.9668 74.7536V78H65.8901V71.5227H69.1713C70.8333 71.5227 72.2857 71.2138 73.5286 70.5959C74.7786 69.978 75.748 69.0973 76.437 67.9538C77.133 66.8104 77.481 65.4574 77.481 63.8949C77.481 62.3466 77.1436 60.9936 76.4689 59.8359C75.7942 58.6783 74.8496 57.7798 73.6351 57.1406C72.4206 56.5014 71.0037 56.1818 69.3844 56.1818H59.9668V66.0303C59.5913 65.1152 59.0812 64.3288 58.4364 63.6712C57.7262 62.9396 56.8704 62.3821 55.869 61.9986C54.8675 61.6151 53.7489 61.4233 52.5131 61.4233C50.8228 61.4233 49.3562 61.7749 48.1133 62.478C46.8704 63.1811 45.908 64.1648 45.2262 65.429C44.8124 66.1963 44.5241 67.0421 44.3615 67.9664C44.2089 67.7587 44.0394 67.5592 43.853 67.3679C43.3061 66.7997 42.603 66.3061 41.7436 65.8871C40.8842 65.468 39.8509 65.1307 38.6435 64.875L36.8537 64.4915C36.3352 64.3849 35.8878 64.2642 35.5114 64.1293C35.1349 63.9943 34.826 63.8452 34.5845 63.6818C34.343 63.5114 34.1655 63.3232 34.0518 63.1172C33.9453 62.9041 33.8991 62.6662 33.9134 62.4034C33.9205 62.0838 34.0163 61.7997 34.201 61.5511C34.3857 61.3026 34.6697 61.1072 35.0533 60.9652C35.4439 60.8161 35.9446 60.7415 36.5554 60.7415C37.5142 60.7415 38.228 60.9403 38.6967 61.3381C39.1726 61.7358 39.4389 62.2898 39.4957 63H45.1634C45.1562 61.5724 44.8011 60.326 44.098 59.2607C43.402 58.1882 42.4112 57.3572 41.1257 56.7678C39.8402 56.1783 38.3168 55.8835 36.5554 55.8835C34.8295 55.8835 33.299 56.1747 31.9638 56.7571C30.6357 57.3395 29.5952 58.1527 28.8423 59.1967C28.4237 59.7788 28.1237 60.4157 27.9423 61.1075C27.7652 60.441 27.4903 59.8254 27.1175 59.2607C26.4215 58.1882 25.4308 57.3572 24.1452 56.7678C22.8597 56.1783 21.3363 55.8835 19.5749 55.8835C17.8491 55.8835 16.3185 56.1747 14.9833 56.7571C13.6552 57.3395 12.6147 58.1527 11.8619 59.1967C11.4314 59.7953 11.1264 60.4518 10.9467 61.1663ZM10.9467 64.4699V70.3295H15.8249C15.8604 70.9972 16.0273 71.5582 16.3256 72.0128C16.6239 72.4673 17.043 72.8118 17.5827 73.0462C18.1296 73.2805 18.7795 73.3977 19.5323 73.3977C20.1644 73.3977 20.6935 73.3196 21.1197 73.1634C21.5458 73.0071 21.869 72.7905 22.0891 72.5135C22.3093 72.2365 22.4229 71.9205 22.43 71.5653C22.4229 71.2315 22.3129 70.9403 22.0998 70.6918C21.8938 70.4361 21.5529 70.2088 21.0771 70.0099C20.6012 69.804 19.9585 69.6122 19.1488 69.4347L16.9755 68.9659C15.0437 68.5469 13.5202 67.8473 12.4052 66.8672C11.6805 66.2215 11.1944 65.4224 10.9467 64.4699ZM27.7355 63H22.5153C22.4585 62.2898 22.1921 61.7358 21.7163 61.3381C21.2475 60.9403 20.5337 60.7415 19.5749 60.7415C18.9641 60.7415 18.4634 60.8161 18.0728 60.9652C17.6893 61.1072 17.4052 61.3026 17.2205 61.5511C17.0359 61.7997 16.94 62.0838 16.9329 62.4034C16.9187 62.6662 16.9648 62.9041 17.0714 63.1172C17.185 63.3232 17.3626 63.5114 17.604 63.6818C17.8455 63.8452 18.1545 63.9943 18.5309 64.1293C18.9073 64.2642 19.3548 64.3849 19.8732 64.4915L21.663 64.875C22.8704 65.1307 23.9038 65.468 24.7631 65.8871C25.6225 66.3061 26.3256 66.7997 26.8725 67.3679C27.4194 67.929 27.8207 68.5611 28.0764 69.2642C28.2035 69.6044 28.3007 69.9595 28.368 70.3295H32.8054C32.8409 70.9972 33.0078 71.5582 33.3061 72.0128C33.6044 72.4673 34.0234 72.8118 34.5632 73.0462C35.1101 73.2805 35.7599 73.3977 36.5128 73.3977C37.1449 73.3977 37.674 73.3196 38.1001 73.1634C38.5263 73.0071 38.8494 72.7905 39.0696 72.5135C39.2898 72.2365 39.4034 71.9205 39.4105 71.5653C39.4034 71.2315 39.2933 70.9403 39.0803 70.6918C38.8743 70.4361 38.5334 70.2088 38.0575 70.0099C37.5817 69.804 36.9389 69.6122 36.1293 69.4347L33.956 68.9659C32.0241 68.5469 30.5007 67.8473 29.3857 66.8672C28.3149 65.9131 27.7649 64.624 27.7355 63ZM59.9668 71.1818H49.9989V71.4375C49.9989 71.9631 50.109 72.4318 50.3292 72.8438C50.5494 73.2557 50.8654 73.5788 51.2773 73.8132C51.6893 74.0476 52.1864 74.1648 52.7688 74.1648C53.1737 74.1648 53.543 74.108 53.8768 73.9943C54.2177 73.8807 54.5089 73.7173 54.7504 73.5043C54.9918 73.2841 55.1694 73.0213 55.283 72.7159H59.9668V71.1818ZM49.9989 67.9432H55.2404C55.2333 67.4744 55.1126 67.0625 54.8782 66.7074C54.6509 66.3452 54.342 66.0646 53.9514 65.8658C53.5678 65.6598 53.131 65.5568 52.641 65.5568C52.1651 65.5568 51.7283 65.6598 51.3306 65.8658C50.9329 66.0646 50.6133 66.3416 50.3718 66.6967C50.1374 67.0518 50.0131 67.4673 49.9989 67.9432ZM65.8901 66.9205H67.9782C68.6742 66.9205 69.2672 66.7997 69.7573 66.5582C70.2544 66.3097 70.6344 65.9581 70.8972 65.5035C71.1671 65.049 71.302 64.5128 71.302 63.8949C71.302 63.2699 71.1671 62.7372 70.8972 62.2969C70.6344 61.8494 70.2544 61.5085 69.7573 61.2741C69.2672 61.0327 68.6742 60.9119 67.9782 60.9119H65.8901V66.9205Z" fill="black"/>
</svg>
