<svg width="109" height="157" viewBox="0 0 109 157" fill="none" xmlns="http://www.w3.org/2000/svg">
<path d="M102.924 70.5659C99.8637 67.2228 96.2981 64.3011 93.4625 60.8176C89.5881 56.0699 85.9945 51.0974 82.6816 45.9564C81.1375 43.5404 80.3794 40.5626 79.6495 37.7252C79.2564 36.2363 79.2284 34.663 79.1161 33.0898H71.648L46.4645 38.6242L30.6582 46.9678C30.1809 47.8386 29.7598 48.7095 29.3106 49.5804C25.8292 56.7722 22.5444 64.0764 19.1192 71.2963C17.154 75.4821 15.0483 79.6118 12.0443 83.2077C9.37714 86.3541 6.1204 88.124 1.90912 87.9554C1.34761 87.9273 0.814185 87.9273 0.25268 87.8992L0 156.221C2.66715 153.581 33.578 142.287 40.2318 131.247C44.3027 124.476 49.3001 118.38 50.7601 110.402C51.3496 107.171 51.7427 103.912 52.3323 100.71C53.0061 97.0856 53.6799 93.4616 54.6064 89.8938C55.1117 87.9554 56.319 86.3822 58.3123 85.5675C61.1198 84.4438 63.9554 84.0786 66.9595 84.5281C70.132 85.0056 73.3325 85.4832 76.5331 85.5956C80.576 85.7361 84.6469 85.3708 88.6897 85.5113C90.7392 85.5956 92.7606 86.326 94.782 86.7193C96.6069 87.0845 98.4038 87.5621 100.229 87.7026C101.492 87.7868 102.587 87.0564 102.924 85.6799C103.092 85.0056 103.373 84.7247 104.103 84.6404C106.153 84.4157 107.444 83.0672 107.921 81.0726C108.034 80.5389 108.455 80.0894 108.707 79.5837C108.707 79.0218 108.707 78.46 108.707 77.8981C106.798 75.4259 105.03 72.8414 102.924 70.5659ZM74.0064 60.031C71.7884 62.4751 67.9983 62.6436 65.5557 60.4243C63.1132 58.2049 62.9447 54.4124 65.1627 51.9683C67.3806 49.5242 71.1708 49.3557 73.6133 51.575C76.0559 53.7944 76.2243 57.5869 74.0064 60.031Z" fill="black"/>
<path d="M5.72852 24.6334C11.7085 20.8409 17.2955 17.3012 22.8825 13.7614C29.5644 9.51941 36.2744 5.33356 42.9563 1.06343C44.2478 0.220641 45.5111 -0.144569 47.0834 0.0520815C61.2614 1.85003 75.4674 3.61989 89.6735 5.36165C89.9543 5.38974 90.235 5.44593 90.9088 5.5583C87.9609 7.44053 85.2376 9.18229 82.5424 10.8679C72.6318 17.1326 62.7213 23.3973 52.7826 29.634C52.2492 29.9711 51.4631 30.1958 50.8454 30.1396C41.9456 29.1002 33.0457 27.9765 24.1178 26.8809C23.9493 26.8528 23.7809 26.7966 23.2755 26.628C26.2515 25.4481 28.9187 24.4087 31.5858 23.3411C35.2918 21.8803 38.9977 20.3914 42.7317 18.9867C44.5004 18.3125 46.1569 17.3293 48.2625 18.2563C49.4978 18.7901 51.1262 17.3573 51.4912 15.8965C51.8842 14.3514 51.0981 12.6939 49.6944 12.0759C48.3748 11.4859 46.3815 11.9073 45.82 13.2277C45.2304 14.6885 44.0793 15.138 42.844 15.6437C34.4214 18.9306 25.9988 22.2174 17.5763 25.4762C17.1551 25.6448 16.6779 25.8976 16.2287 25.8695C12.8596 25.5043 9.4906 25.0829 5.72852 24.6334Z" fill="#234738"/>
<path d="M18.1074 26.7973C19.2024 26.5444 20.1008 26.3478 21.1676 26.123C21.3361 26.8254 21.4484 27.4434 21.5888 28.0615C23.3856 36.096 25.1543 44.1306 27.0073 52.1371C27.2038 53.008 27.8215 53.8789 28.4391 54.5531C29.5621 55.733 29.8429 57.4186 28.9164 58.7109C28.0741 59.8627 26.2212 60.2841 24.9578 59.5818C23.554 58.8232 23.0767 57.1939 23.6102 55.6207C23.919 54.7498 24.0594 53.7103 23.8909 52.8114C22.1783 44.833 20.3534 36.8546 18.5847 28.8762C18.4443 28.2581 18.3039 27.6401 18.1074 26.7973Z" fill="#234738"/>
<path d="M24.2578 30.1122C28.6937 30.6459 32.7365 31.1516 36.8074 31.6292C41.4679 32.2191 46.1004 32.8934 50.7889 33.3148C51.94 33.4271 53.3438 32.9776 54.3545 32.3596C61.3452 28.0614 68.2798 23.6508 75.2144 19.2683C75.6074 19.0154 76.0005 18.8188 76.5901 18.5098C77.1797 21.1505 77.7131 23.5946 78.2746 26.0387C78.9484 29.0727 79.538 32.1349 80.3522 35.1408C80.8294 36.9388 80.3802 38.3434 79.2572 39.6919C76.8147 42.6416 73.6422 44.6643 70.2731 46.378C59.3799 51.8842 47.9252 54.0755 35.7967 52.0247C34.5895 51.828 33.3823 51.4909 32.2312 51.0976C29.7886 50.2829 28.2445 48.8502 27.7672 46.069C26.8127 40.7875 25.4931 35.6184 24.2578 30.1122Z" fill="#234738"/>
</svg>
