<svg width="112" height="140" viewBox="0 0 112 140" fill="none" xmlns="http://www.w3.org/2000/svg">
<path d="M105.414 63.2372C102.28 60.2412 98.6279 57.6229 95.7237 54.5011C91.7555 50.2463 88.075 45.7902 84.6819 41.183C83.1005 39.0178 82.3241 36.3492 81.5765 33.8064C81.1739 32.4721 81.1452 31.0622 81.0301 29.6523H73.3814L47.5887 34.612L31.3999 42.0893C30.9111 42.8698 30.4797 43.6502 30.0197 44.4307C26.4541 50.8757 23.0899 57.4215 19.5818 63.8918C17.569 67.643 15.4124 71.3439 12.3357 74.5664C9.604 77.3861 6.26848 78.9722 1.95531 78.8212C1.38022 78.796 0.833883 78.796 0.258793 78.7708L0 139.999C2.73168 137.632 34.3904 127.512 41.2052 117.617C45.3746 111.55 50.4929 106.087 51.9881 98.9368C52.592 96.0416 52.9945 93.1211 53.5984 90.2511C54.2885 87.0034 54.9786 83.7557 55.9275 80.5583C56.445 78.8211 57.6815 77.4113 59.7231 76.6812C62.5985 75.6741 65.5027 75.3469 68.5794 75.7497C71.8287 76.1777 75.1067 76.6057 78.3847 76.7064C82.5254 76.8322 86.6948 76.505 90.8354 76.6308C92.9345 76.7064 95.0048 77.3609 97.0751 77.7134C98.9442 78.0407 100.784 78.4687 102.654 78.5946C103.947 78.6701 105.069 78.0155 105.414 76.7819C105.586 76.1777 105.874 75.9259 106.622 75.8504C108.721 75.649 110.043 74.4405 110.532 72.653C110.647 72.1747 111.079 71.7719 111.337 71.3187C111.337 70.8152 111.337 70.3117 111.337 69.8081C109.382 67.5926 107.571 65.2764 105.414 63.2372ZM75.7968 53.7962C73.5252 55.9865 69.6434 56.1375 67.1417 54.1486C64.6401 52.1597 64.4675 48.761 66.7392 46.5706C69.0108 44.3803 72.8926 44.2293 75.3943 46.2182C77.8959 48.2071 78.0684 51.6059 75.7968 53.7962Z" fill="black"/>
<path d="M5.86621 22.0757C11.9909 18.6769 17.7131 15.5048 23.4352 12.3326C30.2788 8.531 37.1511 4.77977 43.9947 0.953013C45.3174 0.197732 46.6113 -0.129558 48.2216 0.0466738C62.7426 1.65794 77.2924 3.24403 91.8421 4.80495C92.1297 4.83012 92.4172 4.88048 93.1073 4.98118C90.0881 6.66798 87.2989 8.22889 84.5385 9.73945C74.3881 15.3537 64.2378 20.968 54.0587 26.557C53.5124 26.8592 52.7073 27.0606 52.0747 27.0102C42.9595 26.0787 33.8443 25.0717 24.7004 24.0898C24.5279 24.0646 24.3553 24.0143 23.8378 23.8632C26.8857 22.8058 29.6174 21.8743 32.3491 20.9176C36.1447 19.6085 39.9403 18.2741 43.7646 17.0153C45.5762 16.4111 47.2727 15.5299 49.4293 16.3608C50.6944 16.8391 52.3622 15.5551 52.736 14.246C53.1386 12.8613 52.3335 11.3759 50.8957 10.822C49.5443 10.2933 47.5027 10.671 46.9276 11.8542C46.3238 13.1634 45.1448 13.5662 43.8796 14.0194C35.2533 16.965 26.6269 19.9106 18.0006 22.831C17.5693 22.9821 17.0805 23.2086 16.6204 23.1835C13.1698 22.8562 9.71931 22.4785 5.86621 22.0757Z" fill="black"/>
<path d="M18.5469 24.0144C19.6683 23.7878 20.5884 23.6116 21.6811 23.4102C21.8536 24.0396 21.9687 24.5934 22.1124 25.1473C23.9527 32.3476 25.7642 39.548 27.662 46.7232C27.8633 47.5036 28.4959 48.2841 29.1285 48.8883C30.2787 49.9457 30.5662 51.4563 29.6173 52.6144C28.7547 53.6466 26.8569 54.0242 25.563 53.3948C24.1252 52.7151 23.6364 51.2549 24.1827 49.845C24.499 49.0645 24.6428 48.133 24.4703 47.3274C22.7163 40.1774 20.8472 33.0274 19.0357 25.8774C18.8919 25.3235 18.7482 24.7697 18.5469 24.0144Z" fill="black"/>
<path d="M24.8438 26.9856C29.387 27.4639 33.5276 27.9171 37.697 28.3451C42.4702 28.8738 47.2147 29.478 52.0167 29.8557C53.1957 29.9564 54.6334 29.5536 55.6685 28.9997C62.8284 25.1477 69.9308 21.1951 77.0331 17.2676C77.4357 17.0411 77.8383 16.8648 78.4421 16.5879C79.0459 18.9544 79.5923 21.1448 80.1674 23.3351C80.8575 26.0541 81.4613 28.7983 82.2952 31.4921C82.784 33.1034 82.3239 34.3622 81.1738 35.5706C78.6721 38.2141 75.4229 40.0268 71.9723 41.5625C60.8156 46.497 49.0838 48.4608 36.6618 46.6229C35.4254 46.4467 34.189 46.1446 33.01 45.7921C30.5084 45.062 28.9269 43.778 28.4381 41.2856C27.4604 36.5525 26.1089 31.9201 24.8438 26.9856Z" fill="black"/>
</svg>
