<svg width="128" height="160" viewBox="0 0 128 160" fill="none" xmlns="http://www.w3.org/2000/svg">
<path d="M112.13 106.337C111.241 104.815 110.213 103.371 109.225 101.908C108.454 100.761 107.664 99.6344 106.893 98.4876C106.36 97.6967 105.826 96.9058 105.273 96.1149C104.404 94.8297 103.514 93.5444 102.645 92.2592C102.309 91.7649 101.953 91.2706 101.598 90.796C100.906 89.8272 100.195 88.8385 99.4833 87.8697C98.9695 87.1579 98.4557 86.4263 97.9222 85.7145C97.3294 84.9235 96.7366 84.1524 96.1438 83.3813C96.0252 83.2033 95.8869 83.0451 95.7684 82.8672C95.5707 82.1158 95.3929 81.3447 95.2546 80.5736C94.8396 78.3195 94.1085 76.2038 92.2906 74.8197C90.2948 73.2972 89.1289 71.2606 87.9433 69.2043C85.5128 65.052 81.8374 62.1257 77.6878 60.6625C77.6483 60.623 77.6087 60.5834 77.5692 60.5439C77.1345 60.01 76.6998 59.4761 76.2453 58.9621C75.7118 58.3689 75.1387 57.7955 74.5854 57.2023C74.5459 57.1627 74.5262 57.143 74.4866 57.1034C73.9926 56.53 73.5381 55.9171 73.0244 55.3634C72.3328 54.6318 71.6214 53.92 70.91 53.2082C70.8705 53.1687 70.8508 53.1489 70.8112 53.1093C70.2382 52.4569 69.7047 51.7648 69.1119 51.1321C68.4598 50.44 67.7089 49.8271 67.0766 49.0757C66.2071 48.0475 65.0808 47.2764 64.2113 46.2285C63.4605 45.3387 62.512 44.6466 61.7216 43.7767C60.7138 42.6496 59.5479 41.6412 58.4414 40.5735C56.8013 38.9719 55.0031 37.5285 53.284 36.0258C52.79 35.5908 52.3157 35.136 51.8217 34.701C49.7864 32.9215 47.7709 31.1419 45.7356 29.3624C45.6763 29.3031 45.5972 29.2438 45.5182 29.1844C44.7871 28.6506 44.0164 28.1365 43.3051 27.5829C42.5147 26.9897 41.7638 26.3372 41.0129 25.7242C40.9931 25.7044 40.9734 25.7044 40.9536 25.6847C40.1434 25.0915 39.3333 24.4983 38.5429 23.8854C38.4638 23.826 38.4045 23.7667 38.3255 23.7074C37.7129 23.2922 37.1004 22.8967 36.5076 22.4617C35.8752 22.007 35.2824 21.4929 34.6501 21.0183C34.5908 20.9788 34.5513 20.9392 34.492 20.8997C33.9783 20.5636 33.4447 20.2274 32.931 19.8715C32.1998 19.3772 31.4687 18.8433 30.7376 18.349C30.2831 18.0327 29.7891 17.7756 29.3346 17.4593C28.6825 17.044 0.741627 0.494316 0.0105001 0C-0.285903 0.395453 5.74095 4.50817 12.0049 8.73951C19.1186 13.9199 26.7658 19.5156 26.9634 19.6738C27.5957 20.1681 28.149 20.7415 28.8406 21.1963C29.7693 21.8092 30.619 22.5804 31.4489 23.3317C33.5238 25.1904 35.5591 27.0688 37.6141 28.9274C38.0291 29.3031 38.365 29.7578 38.6614 30.2324C38.7405 30.351 38.7997 30.4697 38.8985 30.5487C40.1434 31.7549 41.3883 32.961 42.6135 34.1671C43.147 34.701 43.6805 35.2546 44.1745 35.828C44.6685 36.4015 45.1428 36.9946 45.6368 37.568C46.1901 38.181 46.7631 38.7742 47.3361 39.3674C47.3757 39.4069 47.3954 39.4267 47.4152 39.4662C47.8104 39.9605 48.1858 40.4548 48.581 40.9294C49.1541 41.6214 49.7469 42.2739 50.3002 42.966C50.8535 43.6382 51.3277 44.3501 51.881 45.0223C52.6516 45.9714 53.4618 46.881 54.2324 47.8498C55.0624 48.878 55.8528 49.9062 56.6629 50.9344C56.8803 51.2112 57.1174 51.488 57.315 51.7846C57.809 52.4964 58.2833 53.228 58.7575 53.9398C59.7258 55.3437 60.7138 56.7475 61.682 58.1711C61.7611 58.27 61.7413 58.4282 61.7808 58.6457C61.4449 58.3689 61.188 58.1316 60.9114 57.9339C60.4174 57.5977 59.9036 57.2814 59.4096 56.9255C58.8958 56.5696 58.4216 56.1543 57.9078 55.7984C57.5126 55.5018 57.1174 55.225 56.7025 54.9482C56.1689 54.5923 55.6157 54.2562 55.1019 53.8805C54.5881 53.5246 54.1139 53.1291 53.6001 52.7534C53.2247 52.4766 52.8295 52.2196 52.454 51.9428C51.9403 51.5869 51.4067 51.2705 50.893 50.9146C50.4978 50.6378 50.1026 50.3609 49.6678 50.0644C48.8379 50.9739 48.0673 51.8044 47.3164 52.6744C47.2176 52.7732 47.1781 52.9512 47.1781 53.1093C47.1583 54.355 47.2966 55.5809 47.6128 56.7871C48.087 58.5666 48.7984 60.267 49.8259 61.7895C50.0235 62.0861 50.2409 62.363 50.4582 62.6398C51.0115 63.3318 51.5451 64.0634 52.1576 64.6961C52.9085 65.4673 53.7384 66.1593 54.5486 66.8909C54.6869 67.0095 54.8253 67.1282 54.9636 67.227C55.1809 67.3654 55.3983 67.5038 55.5959 67.6422C52.0391 72.7238 50.9918 79.4465 53.3037 85.5958C53.6989 86.6635 54.2324 87.1776 55.2797 87.2369C55.0229 88.4035 54.845 89.5701 54.7067 90.7367C54.4893 92.6151 54.4696 94.5331 54.3708 96.4312C54.351 96.8465 54.3708 97.3012 54.272 97.6967C54.0744 98.5271 53.9558 99.3576 53.6792 100.168C53.1654 101.651 52.7702 103.174 52.3157 104.676C52.2762 104.775 52.2564 104.894 52.2169 104.993C51.4067 106.456 50.6163 107.919 49.8062 109.363C49.5493 109.798 49.2134 110.193 48.9367 110.628C48.581 111.162 48.2649 111.755 47.8301 112.21C47.1978 112.902 46.4469 113.633 45.7751 114.286V159.466C45.7751 159.466 62.0772 147.109 68.6179 134.988C68.6179 134.968 68.6376 134.948 68.6376 134.929C69.0723 134.138 69.3292 133.367 69.4873 132.595C69.5861 132.319 69.6652 132.042 69.764 131.765C69.9616 131.192 70.1394 130.618 70.337 130.045C70.752 128.858 71.246 127.712 71.6016 126.525C72.9058 122.136 74.131 117.726 75.2178 113.258C75.2375 113.179 75.277 113.08 75.277 113.001C75.4746 111.874 75.6525 110.747 75.8698 109.639C76.3046 107.326 76.7591 105.032 77.2333 102.739C77.2728 102.501 77.3716 102.284 77.4704 101.968C78.6363 102.323 79.7824 102.679 80.9087 103.035C81.047 103.114 81.2051 103.174 81.3829 103.193C81.7781 103.312 82.1733 103.451 82.5686 103.569C83.517 103.886 84.4655 104.261 85.3745 104.637C86.7577 105.21 88.1409 105.784 89.4846 106.416C91.1247 107.207 92.7648 108.038 94.3851 108.868C95.2151 109.303 96.0055 109.778 96.8156 110.252C97.4677 110.628 98.1396 110.984 98.7719 111.379C99.918 112.091 101.064 112.843 102.289 113.396C104.404 114.464 108.356 110.391 110.569 108.572C111.497 107.959 112.525 107.247 112.13 106.337ZM25.5209 18.4677C25.5802 18.5467 19.1581 13.8804 12.7361 9.21406C19.2569 13.6431 25.8173 18.0722 25.5209 18.4677ZM91.0654 84.7654C88.9116 87.1381 85.2559 87.2963 82.8847 85.141C80.5135 82.9858 80.3554 79.3279 82.5093 76.9552C84.6631 74.5825 88.3188 74.4243 90.69 76.5795C93.0414 78.7347 93.2193 82.4124 91.0654 84.7654Z" fill="black"/>
<path d="M123.868 113.12C124.283 112.903 124.599 112.745 125.034 112.507C125.923 113.654 126.792 114.801 127.8 116.106C121.457 120.93 115.153 125.696 108.81 130.52C107.862 129.275 106.992 128.128 106.064 126.902C106.36 126.585 106.637 126.309 106.854 126.071C105.925 124.727 105.036 123.461 104.147 122.196C102.685 120.14 102.922 118.044 104.918 116.501C108.376 113.832 111.853 111.202 115.331 108.573C117.307 107.09 119.481 107.406 121.022 109.363C121.951 110.57 122.86 111.796 123.868 113.12Z" fill="black"/>
<path d="M60.8917 57.8942C60.3977 57.558 59.8839 57.2417 59.3899 56.8858C58.8761 56.5299 58.4019 56.1146 57.8881 55.7587C57.4929 55.4621 57.0977 55.1853 56.6828 54.9085C56.1492 54.5526 55.5959 54.2165 55.0822 53.8408C54.5684 53.4849 54.0942 53.0894 53.5804 52.7137C53.205 52.4369 52.8098 52.1799 52.4343 51.9031C51.9206 51.5471 51.387 51.2308 50.8733 50.8749C50.4781 50.5981 50.0829 50.3212 49.6481 50.0247C47.7709 48.3242 47.3757 48.9174 46.6051 49.7676C46.5063 49.8665 46.526 52.516 46.526 52.6544C46.5063 53.9001 47.2374 55.5215 47.5536 56.7276C48.0278 58.5071 48.7392 60.2076 49.7667 61.7301C49.9643 62.0267 50.1817 62.3035 50.399 62.5803C50.9523 63.2723 51.4858 64.0039 52.0984 64.6366C52.8493 65.4078 53.6792 66.0998 54.4894 66.8314C54.6277 66.95 54.766 67.0687 54.9043 67.1675C55.1217 67.3059 55.3391 67.4444 55.5367 67.5828L61.7018 58.5664C61.4054 58.3292 61.1683 58.0919 60.8917 57.8942Z" fill="black"/>
<path d="M44.3128 58.1908C44.056 58.1908 43.8188 58.0721 43.641 57.8546C40.5189 53.7815 42.8308 47.2367 42.9494 46.9599C43.1075 46.5249 43.5817 46.3074 44.0164 46.4656C44.4512 46.6238 44.6685 47.0983 44.5105 47.5333C44.4907 47.5926 42.3961 53.5047 44.9649 56.8265C45.2416 57.2022 45.1823 57.7162 44.8069 58.0128C44.6685 58.1512 44.4907 58.1908 44.3128 58.1908Z" fill="black"/>
<path d="M39.1948 57.3604C38.9577 57.3604 38.7008 57.2615 38.5427 57.044C35.6182 53.3861 38.2068 47.8893 38.3254 47.652C38.523 47.2368 39.0367 47.0588 39.4517 47.2566C39.8667 47.4543 40.0445 47.9684 39.8469 48.3836C39.8272 48.4231 37.614 53.1686 39.8667 55.9961C40.1631 56.352 40.1038 56.8859 39.7284 57.1824C39.5505 57.3011 39.3727 57.3604 39.1948 57.3604Z" fill="black"/>
<path d="M74.2892 153.831C73.9137 153 73.3012 151.953 72.4515 150.667L63.0654 136.194L71.7796 123.144C73.3209 120.83 74.1113 118.992 74.1113 117.647C74.1113 116.718 73.7556 115.927 73.0443 115.255C72.3329 114.582 71.4042 114.246 70.2779 114.246C69.6455 114.246 69.112 114.345 68.6378 114.562C68.1635 114.78 67.7288 115.096 67.3533 115.512C66.9779 115.927 66.5827 116.461 66.1677 117.113C65.7528 117.766 65.2588 118.537 64.666 119.446L57.5721 130.203L50.9326 119.446C49.7075 117.449 48.7393 116.085 48.0476 115.353C47.4944 114.78 46.7632 114.424 45.874 114.305V126.861L51.9206 136.214L45.874 145.052V159.486C46.2099 159.288 46.5261 159.071 46.8028 158.794C47.1782 158.418 47.5141 158.023 47.7908 157.608C48.0674 157.212 48.5219 156.5 49.174 155.492L57.4535 142.857L65.239 155.116C66.227 156.619 66.8989 157.647 67.2545 158.161C67.6102 158.675 68.0845 159.13 68.6773 159.466C69.2701 159.822 69.9815 160 70.8114 160C71.6018 160 72.2934 159.822 72.9257 159.486C73.558 159.15 74.0323 158.675 74.3682 158.102C74.7041 157.509 74.882 156.876 74.882 156.164C74.8622 155.452 74.6646 154.661 74.2892 153.831Z" fill="black"/>
</svg>
