<svg width="148" height="185" viewBox="0 0 148 185" fill="none" xmlns="http://www.w3.org/2000/svg">
<path d="M129.65 122.952C128.622 121.192 127.434 119.523 126.291 117.831C125.4 116.505 124.486 115.202 123.595 113.876C122.978 112.962 122.362 112.047 121.722 111.133C120.717 109.647 119.688 108.161 118.683 106.675C118.295 106.103 117.883 105.532 117.472 104.983C116.673 103.863 115.85 102.72 115.027 101.599C114.433 100.776 113.839 99.9303 113.223 99.1073C112.537 98.1928 111.852 97.3012 111.166 96.4096C111.029 96.2038 110.869 96.0209 110.732 95.8152C110.504 94.9464 110.298 94.0548 110.138 93.1631C109.658 90.5569 108.813 88.1106 106.711 86.5103C104.403 84.7499 103.055 82.3951 101.684 80.0174C98.8742 75.2164 94.6245 71.8328 89.8265 70.141C89.7808 70.0953 89.7351 70.0495 89.6894 70.0038C89.1867 69.3865 88.6841 68.7693 88.1586 68.1748C87.5417 67.489 86.8791 66.826 86.2394 66.1401C86.1937 66.0944 86.1708 66.0715 86.1251 66.0258C85.554 65.3628 85.0285 64.6541 84.4344 64.0139C83.6348 63.168 82.8122 62.345 81.9897 61.522C81.944 61.4762 81.9212 61.4534 81.8755 61.4077C81.2129 60.6532 80.596 59.853 79.9106 59.1214C79.1566 58.3213 78.2884 57.6125 77.5573 56.7438C76.552 55.555 75.2496 54.6633 74.2443 53.4516C73.3761 52.4228 72.2794 51.6227 71.3655 50.6167C70.2003 49.3136 68.8523 48.1476 67.5728 46.9131C65.6764 45.0612 63.5973 43.3923 61.6096 41.6548C61.0384 41.1518 60.49 40.626 59.9188 40.123C57.5655 38.0654 55.235 36.0078 52.8817 33.9503C52.8132 33.8817 52.7218 33.8131 52.6304 33.7445C51.785 33.1272 50.894 32.5328 50.0715 31.8927C49.1576 31.2068 48.2893 30.4523 47.4211 29.7436C47.3983 29.7208 47.3754 29.7208 47.3526 29.6979C46.4158 29.012 45.4791 28.3262 44.5652 27.6174C44.4738 27.5489 44.4052 27.4803 44.3138 27.4117C43.6056 26.9316 42.8973 26.4743 42.2119 25.9714C41.4807 25.4455 40.7953 24.8511 40.0642 24.3024C39.9956 24.2567 39.9499 24.211 39.8814 24.1653C39.2873 23.7766 38.6705 23.388 38.0764 22.9764C37.2311 22.4049 36.3857 21.7876 35.5403 21.216C35.0148 20.8503 34.4436 20.553 33.9181 20.1873C33.1642 19.7071 0.857506 0.571553 0.0121408 0C-0.330575 0.457242 6.63797 5.21256 13.8807 10.1051C22.1059 16.0949 30.9479 22.5649 31.1764 22.7478C31.9075 23.3194 32.5473 23.9824 33.3469 24.5082C34.4208 25.2169 35.4032 26.1085 36.3628 26.9773C38.7618 29.1263 41.1152 31.2982 43.4913 33.4473C43.9711 33.8817 44.3595 34.4075 44.7023 34.9562C44.7936 35.0934 44.8622 35.2305 44.9764 35.322C46.4158 36.7166 47.8552 38.1112 49.2718 39.5057C49.8887 40.123 50.5056 40.7632 51.0768 41.4262C51.648 42.0892 52.1963 42.775 52.7675 43.438C53.4072 44.1468 54.0698 44.8326 54.7324 45.5185C54.7781 45.5642 54.8009 45.5871 54.8238 45.6328C55.2807 46.2043 55.7148 46.7759 56.1718 47.3246C56.8344 48.1248 57.5198 48.8792 58.1596 49.6794C58.7993 50.4567 59.3476 51.2797 59.9874 52.057C60.8784 53.1544 61.8152 54.2061 62.7063 55.3263C63.6659 56.5152 64.5798 57.704 65.5165 58.8928C65.7678 59.2129 66.042 59.533 66.2705 59.8759C66.8417 60.6989 67.39 61.5448 67.9384 62.3679C69.0579 63.9911 70.2003 65.6143 71.3198 67.2604C71.4112 67.3747 71.3884 67.5576 71.4341 67.8091C71.0457 67.489 70.7486 67.2146 70.4288 66.986C69.8576 66.5974 69.2635 66.2316 68.6923 65.8201C68.0983 65.4085 67.55 64.9284 66.9559 64.5169C66.499 64.174 66.042 63.8539 65.5622 63.5338C64.9453 63.1223 64.3056 62.7337 63.7115 62.2993C63.1175 61.8878 62.5692 61.4305 61.9751 60.9961C61.541 60.6761 61.0841 60.3789 60.65 60.0588C60.0559 59.6473 59.439 59.2815 58.845 58.87C58.388 58.5499 57.9311 58.2298 57.4284 57.8869C56.4688 58.9385 55.5778 59.8988 54.7095 60.9047C54.5953 61.019 54.5496 61.2248 54.5496 61.4077C54.5268 62.848 54.6867 64.2654 55.0523 65.66C55.6006 67.7176 56.4231 69.6837 57.6112 71.4441C57.8397 71.7871 58.091 72.1071 58.3423 72.4272C58.9821 73.2274 59.599 74.0733 60.3072 74.8049C61.1755 75.6965 62.1351 76.4967 63.0718 77.3426C63.2317 77.4797 63.3917 77.6169 63.5516 77.7312C63.8029 77.8912 64.0543 78.0513 64.2827 78.2113C60.1702 84.0869 58.9592 91.86 61.6324 98.9701C62.0894 100.205 62.7062 100.799 63.9172 100.868C63.6202 102.217 63.4145 103.565 63.2546 104.914C63.0033 107.086 62.9804 109.304 62.8662 111.499C62.8433 111.979 62.8662 112.505 62.7519 112.962C62.5235 113.922 62.3864 114.882 62.0665 115.82C61.4725 117.534 61.0155 119.295 60.49 121.032C60.4443 121.146 60.4215 121.284 60.3758 121.398C59.439 123.09 58.5251 124.781 57.5884 126.45C57.2913 126.953 56.9029 127.411 56.5831 127.914C56.1718 128.531 55.8062 129.217 55.3036 129.743C54.5725 130.543 53.7042 131.389 52.9274 132.143V184.383C52.9274 184.383 71.7768 170.094 79.3394 156.08C79.3394 156.057 79.3622 156.034 79.3622 156.011C79.8649 155.097 80.1619 154.205 80.3447 153.313C80.4589 152.993 80.5503 152.673 80.6645 152.353C80.893 151.69 81.0987 151.027 81.3271 150.364C81.8069 148.992 82.3781 147.666 82.7894 146.295C84.2973 141.219 85.7139 136.121 86.9705 130.954C86.9934 130.863 87.0391 130.748 87.0391 130.657C87.2675 129.354 87.4732 128.051 87.7245 126.77C88.2271 124.096 88.7526 121.444 89.301 118.792C89.3467 118.517 89.4609 118.266 89.5752 117.9C90.9232 118.311 92.2483 118.723 93.5506 119.135C93.7106 119.226 93.8934 119.295 94.099 119.317C94.556 119.455 95.0129 119.615 95.4699 119.752C96.5665 120.118 97.6632 120.552 98.7142 120.986C100.314 121.649 101.913 122.312 103.467 123.044C105.363 123.958 107.259 124.919 109.133 125.879C110.092 126.382 111.006 126.931 111.943 127.479C112.697 127.914 113.474 128.325 114.205 128.782C115.53 129.605 116.855 130.474 118.272 131.114C120.717 132.349 125.286 127.639 127.845 125.536C128.919 124.827 130.107 124.004 129.65 122.952ZM29.5085 21.3532C29.5771 21.4447 22.1516 16.0492 14.7261 10.6537C22.2658 15.7749 29.8512 20.896 29.5085 21.3532ZM105.294 98.0099C102.804 100.753 98.5771 100.936 95.8354 98.4443C93.0937 95.9523 92.9109 91.7228 95.4013 88.9794C97.8917 86.2359 102.119 86.053 104.86 88.545C107.579 91.037 107.785 95.2893 105.294 98.0099Z" fill="black"/>
<path d="M143.22 130.794C143.7 130.543 144.065 130.36 144.568 130.085C145.596 131.411 146.601 132.738 147.766 134.246C140.432 139.825 133.144 145.335 125.81 150.913C124.713 149.473 123.708 148.147 122.634 146.729C122.977 146.363 123.297 146.043 123.548 145.769C122.474 144.214 121.446 142.751 120.418 141.288C118.727 138.91 119.001 136.487 121.309 134.704C125.307 131.617 129.328 128.577 133.35 125.536C135.634 123.821 138.148 124.187 139.93 126.45C141.004 127.845 142.055 129.262 143.22 130.794Z" fill="black"/>
<path d="M70.4051 66.9404C69.8339 66.5518 69.2399 66.186 68.6687 65.7745C68.0746 65.3629 67.5263 64.8828 66.9323 64.4713C66.4753 64.1284 66.0184 63.8083 65.5385 63.4883C64.9217 63.0767 64.2819 62.6881 63.6879 62.2537C63.0938 61.8422 62.5455 61.3849 61.9515 60.9506C61.5174 60.6305 61.0604 60.3333 60.6263 60.0132C60.0323 59.6017 59.4154 59.2359 58.8213 58.8244C58.3644 58.5043 57.9074 58.1842 57.4048 57.8413C55.2342 55.8752 54.7773 56.561 53.8862 57.5441C53.772 57.6584 53.7948 60.7219 53.7948 60.882C53.772 62.3223 54.6173 64.197 54.9829 65.5916C55.5313 67.6492 56.3538 69.6153 57.5419 71.3757C57.7703 71.7186 58.0217 72.0387 58.273 72.3587C58.9127 73.1589 59.5296 74.0048 60.2379 74.7364C61.1061 75.628 62.0657 76.4282 63.0025 77.2741C63.1624 77.4113 63.3223 77.5485 63.4823 77.6628C63.7336 77.8228 63.9849 77.9828 64.2134 78.1429L71.3419 67.7177C70.9991 67.4434 70.725 67.1691 70.4051 66.9404Z" fill="#648947"/>
<path d="M20.0482 159.508C19.4085 159.508 18.7916 159.096 18.586 158.456C18.3118 157.633 18.7459 156.764 19.5684 156.49L29.1873 153.221C30.0098 152.946 30.878 153.381 31.1522 154.204C31.4264 155.027 30.9923 155.896 30.1698 156.17L20.5509 159.439C20.3681 159.485 20.2082 159.508 20.0482 159.508Z" fill="#648947"/>
<path d="M29.5999 143.208C29.44 143.208 29.28 143.185 29.1201 143.139L19.4327 140.076C18.6101 139.824 18.1532 138.933 18.4274 138.133C18.6787 137.31 19.5697 136.852 20.3694 137.127L30.0569 140.19C30.8794 140.442 31.3363 141.333 31.0621 142.133C30.8794 142.774 30.2625 143.208 29.5999 143.208Z" fill="#648947"/>
<path d="M37.4154 132.577C36.9356 132.577 36.4558 132.348 36.1587 131.937L30.2183 123.683C29.7157 122.975 29.8756 122.014 30.5839 121.511C31.2922 121.009 32.2518 121.169 32.7544 121.877L38.6948 130.13C39.1975 130.839 39.0375 131.799 38.3293 132.302C38.0322 132.462 37.7352 132.577 37.4154 132.577Z" fill="#648947"/>
<path d="M49.7081 154.436V158.185C49.5254 158.185 49.3197 158.185 49.1369 158.185C43.0138 158.185 37.7816 160.471 33.2578 164.701C32.4124 163.786 31.6813 162.986 30.8359 162.094C35.931 156.676 42.9452 154.321 49.7081 154.436Z" fill="#648947"/>
<path d="M49.7063 161.932V165.613C46.1192 165.453 42.2579 166.641 38.6709 169.705C37.8026 168.928 36.9801 168.15 36.1348 167.396C39.699 163.418 44.8397 161.795 49.7063 161.932Z" fill="#648947"/>
<path d="M49.7082 169.364V173.091C47.7661 172.908 45.824 173.594 43.9277 175.103C43.0366 174.303 42.1913 173.525 41.2773 172.702C43.5164 170.393 46.6923 169.296 49.7082 169.364Z" fill="#648947"/>
<path d="M49.0433 176.84C49.2718 176.84 49.4774 176.863 49.7059 176.886V184.201C49.5231 184.224 49.3175 184.247 49.1347 184.247C47.0784 184.247 45.4334 182.647 45.3877 180.589C45.342 178.555 46.9642 176.886 49.0433 176.84Z" fill="#648947"/>
<path d="M49.545 150.867L49.7049 132.371C49.5907 132.371 49.4993 132.371 49.3851 132.371C40.7486 132.371 33.7344 139.39 33.7344 148.032C33.7344 150.775 34.4427 152.307 35.6993 154.547C39.9261 151.735 44.7013 150.912 49.545 150.867Z" fill="#648947"/>
<path d="M47.671 128.327C47.2826 128.029 47.0312 127.572 47.0312 127.046L47.1455 116.896C47.1455 116.027 47.8538 115.341 48.722 115.364C49.5902 115.364 50.2756 116.073 50.2528 116.941L50.1385 127.092C50.1385 127.961 49.4303 128.647 48.562 128.624C48.2193 128.624 47.9223 128.51 47.671 128.327Z" fill="#648947"/>
<path d="M51.2374 67.2828C50.9404 67.2828 50.6662 67.1457 50.4605 66.8942C46.8506 62.1846 49.5238 54.6172 49.6609 54.2972C49.8437 53.7942 50.392 53.5427 50.8947 53.7256C51.3973 53.9085 51.6486 54.4572 51.4659 54.9602C51.443 55.0287 49.0211 61.8645 51.9914 65.7054C52.3112 66.1397 52.2427 66.7342 51.8086 67.0771C51.6486 67.2371 51.443 67.2828 51.2374 67.2828Z" fill="#648947"/>
<path d="M45.3192 66.3228C45.045 66.3228 44.748 66.2085 44.5652 65.957C41.1837 61.7275 44.1768 55.3719 44.3139 55.0975C44.5424 54.6174 45.1364 54.4117 45.6162 54.6403C46.096 54.8689 46.3016 55.4633 46.0731 55.9434C46.0503 55.9891 43.4914 61.4761 46.096 64.7453C46.4387 65.1569 46.3702 65.7741 45.9361 66.1171C45.7304 66.2542 45.5248 66.3228 45.3192 66.3228Z" fill="#648947"/>
<path d="M85.898 177.866C85.4639 176.905 84.7556 175.694 83.7731 174.208L72.9205 157.473L82.9963 142.384C84.7784 139.709 85.6923 137.583 85.6923 136.028C85.6923 134.953 85.2811 134.039 84.4586 133.262C83.636 132.484 82.5622 132.096 81.2599 132.096C80.5288 132.096 79.9119 132.21 79.3635 132.462C78.8152 132.713 78.3125 133.079 77.8784 133.559C77.4443 134.039 76.9874 134.656 76.5076 135.411C76.0278 136.165 75.4566 137.057 74.7711 138.108L66.5688 150.545L58.892 138.108C57.4754 135.799 56.3559 134.222 55.5562 133.376C54.9165 132.713 54.0711 132.301 53.043 132.164V146.682L60.0344 157.496L53.043 167.715V184.404C53.4314 184.176 53.7969 183.924 54.1168 183.604C54.5509 183.17 54.9393 182.712 55.2592 182.232C55.5791 181.775 56.1046 180.952 56.8585 179.786L66.4317 165.177L75.4337 179.352C76.5761 181.089 77.3529 182.278 77.7642 182.872C78.1754 183.467 78.7238 183.993 79.4092 184.381C80.0947 184.793 80.9172 184.999 81.8768 184.999C82.7907 184.999 83.5904 184.793 84.3215 184.404C85.0526 184.016 85.6009 183.467 85.9894 182.804C86.3778 182.118 86.5834 181.386 86.5834 180.563C86.5606 179.74 86.3321 178.826 85.898 177.866Z" fill="#648947"/>
</svg>
