<svg width="211" height="179" viewBox="0 0 211 179" fill="none" xmlns="http://www.w3.org/2000/svg">
<path d="M147.422 85.9246C134.49 85.6232 131.635 81.839 125.321 78.6912C119.006 75.5433 113.968 74.6057 113.968 74.6057C113.968 74.6057 114.27 63.8896 114.606 56.0534C114.908 48.1838 101.675 21.1256 105.134 11.0458C108.594 0.965926 105.134 0.965929 105.134 0.965929C93.4457 9.13696 95.9648 30.8706 95.9648 30.8706C83.9739 21.7284 90.5907 -0.909391 85.5525 0.0282685C80.5143 0.965928 81.1189 24.2735 84.6121 32.4445C88.0716 40.6155 92.8075 49.4228 94.722 59.8375C96.6366 70.2523 93.4457 73.0652 93.4457 73.0652C86.8289 59.5361 73.5616 61.1101 73.5616 61.1101C67.8853 58.2636 80.1785 72.429 80.1785 72.429C71.6471 66.7695 56.4989 67.7072 56.4989 67.7072C61.2348 81.8725 75.4426 87.532 75.4426 87.532C66.9112 99.822 48.1355 106.419 48.1355 106.419L48.0684 177.48C59.4211 174.332 94.0503 135.687 94.0503 135.687C125.623 135.687 125.623 127.818 130.997 127.818C136.371 127.818 139.193 131.267 152.46 134.114C158.942 135.487 166.5 135.52 172.613 134.783C175.199 130.53 177.785 126.311 180.405 122.091C176.106 92.1198 160.219 86.2594 147.422 85.9246ZM124.011 100.693C120.518 104.51 114.573 104.778 110.743 101.295C106.914 97.8127 106.646 91.8854 110.139 88.0678C113.632 84.2502 119.577 83.9823 123.406 87.465C127.235 90.9477 127.537 96.8751 124.011 100.693Z" fill="black"/>
<path d="M2.25602 144.663C1.38273 144.663 0.543035 144.094 0.240743 143.223C-0.128724 142.118 0.442271 140.912 1.58426 140.544L14.7172 136.09C15.8256 135.722 17.0347 136.291 17.4042 137.43C17.7737 138.535 17.2027 139.74 16.0607 140.109L2.92778 144.562C2.72625 144.629 2.49114 144.663 2.25602 144.663Z" fill="#0A5775"/>
<path d="M15.3541 122.461C15.1526 122.461 14.9175 122.427 14.716 122.36L1.48229 118.174C0.373888 117.806 -0.264283 116.634 0.105185 115.529C0.474653 114.424 1.65023 113.787 2.75864 114.156L15.9923 118.342C17.1007 118.71 17.7389 119.882 17.3694 120.987C17.0671 121.891 16.2274 122.461 15.3541 122.461Z" fill="#0A5775"/>
<path d="M26.0001 107.993C25.3284 107.993 24.6902 107.692 24.2871 107.122L16.1924 95.9038C15.5207 94.9661 15.7222 93.6266 16.6627 92.9569C17.6031 92.2871 18.9466 92.488 19.6184 93.4257L27.7131 104.644C28.3849 105.582 28.1833 106.921 27.2429 107.591C26.8734 107.859 26.4368 107.993 26.0001 107.993Z" fill="#0A5775"/>
<path d="M42.7956 137.764V142.888C42.5269 142.888 42.2582 142.888 41.9895 142.888C33.626 142.888 26.4718 146.002 20.2916 151.762C19.1496 150.523 18.1084 149.418 17 148.212C23.9527 140.845 33.5589 137.597 42.7956 137.764Z" fill="#0A5775"/>
<path d="M42.7945 147.977V153.001C37.8906 152.8 32.6173 154.407 27.7135 158.559C26.5379 157.488 25.3959 156.45 24.2539 155.412C29.1242 149.987 36.144 147.776 42.7945 147.977Z" fill="#0A5775"/>
<path d="M42.7941 158.091V163.147C40.1407 162.913 37.4872 163.817 34.9009 165.893C33.6918 164.788 32.5162 163.75 31.2734 162.611C34.3299 159.497 38.6628 157.99 42.7941 158.091Z" fill="#0A5775"/>
<path d="M41.8885 168.271C42.1908 168.271 42.4931 168.305 42.7954 168.338V178.284C42.5267 178.318 42.2916 178.351 42.0229 178.351C39.2015 178.351 36.9511 176.175 36.9175 173.362C36.8503 170.582 39.0671 168.338 41.8885 168.271Z" fill="#0A5775"/>
<path d="M42.56 132.907L42.7615 107.725C42.6271 107.725 42.4592 107.725 42.3248 107.725C30.5355 107.725 20.9629 117.269 20.9629 129.023C20.9629 132.774 21.9369 134.85 23.6499 137.897C29.4271 134.08 35.9431 132.974 42.56 132.907Z" fill="#0A5775"/>
<path d="M40.0061 102.199C39.4687 101.797 39.1328 101.161 39.1328 100.458L39.3008 86.6273C39.3008 85.4552 40.2748 84.5176 41.4504 84.5176C42.626 84.5176 43.5664 85.4887 43.5664 86.6608L43.3985 100.491C43.3985 101.663 42.4244 102.601 41.2488 102.601C40.7786 102.634 40.342 102.467 40.0061 102.199Z" fill="#0A5775"/>
<path d="M203.077 126.009C203.648 125.473 204.084 125.071 204.723 124.502C206.704 125.975 208.652 127.449 210.903 129.123C202.741 139.873 194.646 150.555 186.451 161.338C184.335 159.764 182.387 158.258 180.304 156.717C180.64 156.081 180.976 155.478 181.211 155.009C179.061 153.268 177.046 151.593 174.997 149.953C171.638 147.274 171.101 143.757 173.654 140.308C178.087 134.381 182.555 128.487 187.055 122.593C189.608 119.244 193.336 118.775 196.729 121.253C198.811 122.727 200.826 124.301 203.077 126.009Z" fill="black"/>
</svg>
