<svg width="147" height="160" viewBox="0 0 147 160" fill="none" xmlns="http://www.w3.org/2000/svg">
<path d="M89.1303 77.0834C77.5295 76.813 74.9683 73.4183 69.3035 70.5943C63.6387 67.7704 59.1189 66.9292 59.1189 66.9292C59.1189 66.9292 59.3901 57.3157 59.6914 50.2858C59.9626 43.2259 48.0906 18.9519 51.1942 9.90922C54.2978 0.866538 51.1942 0.86654 51.1942 0.86654C40.7083 8.19682 42.9682 27.6942 42.9682 27.6942C32.2111 19.4927 38.1471 -0.81582 33.6273 0.0253599C29.1075 0.866539 29.6498 21.7759 32.7836 29.1061C35.8872 36.4364 40.1358 44.3375 41.8533 53.6806C43.5708 63.0237 40.7083 65.5472 40.7083 65.5472C34.7723 53.4102 22.8702 54.8222 22.8702 54.8222C17.7779 52.2686 28.8061 64.9764 28.8061 64.9764C21.1526 59.8993 7.56312 60.7405 7.56312 60.7405C11.8117 73.4483 24.5575 78.5254 24.5575 78.5254C16.904 89.5509 0.060263 95.4692 0.060263 95.4692L0 159.219C10.1846 156.395 41.2507 121.726 41.2507 121.726C69.5747 121.726 69.5747 114.666 74.3958 114.666C79.2169 114.666 81.748 117.76 93.6501 120.314C99.4656 121.546 106.245 121.576 111.729 120.915C114.049 117.1 116.37 113.314 118.72 109.529C114.863 82.6412 100.611 77.3838 89.1303 77.0834ZM68.1284 90.332C64.9946 93.7568 59.6613 93.9971 56.2262 90.8728C52.7912 87.7484 52.5501 82.4309 55.6839 79.0061C58.8176 75.5813 64.1509 75.341 67.586 78.4654C71.021 81.5897 71.2922 86.9072 68.1284 90.332Z" fill="black"/>
<path d="M139.058 113.044C139.571 112.563 139.962 112.202 140.535 111.692C142.313 113.014 144.06 114.335 146.079 115.838C138.757 125.481 131.495 135.065 124.143 144.738C122.245 143.326 120.497 141.974 118.629 140.592C118.93 140.022 119.232 139.481 119.443 139.06C117.514 137.498 115.706 135.996 113.868 134.524C110.855 132.12 110.373 128.966 112.663 125.872C116.64 120.554 120.648 115.267 124.685 109.979C126.976 106.975 130.32 106.555 133.363 108.778C135.232 110.1 137.04 111.512 139.058 113.044Z" fill="black"/>
</svg>
