<svg width="86" height="80" viewBox="0 0 86 80" fill="none" xmlns="http://www.w3.org/2000/svg">
<path d="M48.8609 0.483016C48.4112 0.745387 47.5444 1.25139 46.94 1.60746C46.3356 1.96354 45.5672 2.418 45.2299 2.61947C44.8973 2.81625 44.3678 3.13016 44.0586 3.3082C43.7494 3.49092 43.0232 3.91727 42.4422 4.25929C41.8612 4.60131 40.957 5.13074 40.4323 5.43997C39.9075 5.74919 39.1485 6.19429 38.7456 6.43323C38.3427 6.67218 37.9397 6.91113 37.8507 6.96266C37.7617 7.0142 37.2229 7.32811 36.656 7.66544C36.0891 7.99809 35.4987 8.34948 35.3441 8.4385C35.1895 8.52752 34.7678 8.77584 34.4071 8.99136C34.0463 9.20688 33.6902 9.41771 33.6106 9.45988C33.4372 9.56295 31.6662 10.6031 30.4715 11.3105C29.9842 11.5963 28.8551 12.2616 27.9649 12.7864C27.0747 13.3064 26.2548 13.7937 26.1377 13.864C26.0206 13.9343 25.6738 14.1404 25.3646 14.3184C25.0554 14.5012 24.3807 14.8994 23.8654 15.2039C23.35 15.5038 22.6004 15.9442 22.2021 16.1832C21.8039 16.4174 20.7637 17.0265 19.897 17.5372L18.3134 18.4695V28.1117V37.7585L17.8449 37.7632C17.5872 37.7679 17.3529 37.7726 17.3201 37.7773C17.2264 37.7866 17.0671 37.2385 16.7485 35.7673C16.1582 33.0452 16.1582 33.0312 16.1254 31.0962C16.102 29.7187 16.1348 28.8426 16.2566 27.8962C16.2847 27.6713 16.2987 26.4203 16.2894 24.8039L16.2753 22.0865L16.1722 22.4145C15.596 24.2323 15.1837 26.3922 14.9822 28.6692C14.8979 29.625 14.9072 31.902 15.0056 32.8859C15.268 35.5799 15.9286 38.035 16.9594 40.148C17.4935 41.2303 17.9105 41.9659 18.4914 42.8186C20.9512 46.4496 24.7602 49.4528 29.5813 51.5705C30.7011 52.0625 30.776 52.0859 31.0197 52.0016C31.1837 51.9454 31.2399 51.8891 31.3289 51.7205L31.432 51.5143V47.0727C31.432 44.2803 31.4507 42.6312 31.4788 42.6312C31.5304 42.6312 32.2472 42.8373 38.858 44.7629C40.868 45.3486 42.9763 45.9577 43.5432 46.1216C44.5552 46.4121 45.0706 46.562 46.9869 47.1196C47.5163 47.2742 48.5049 47.56 49.1889 47.7615C50.8194 48.2347 53.9819 49.1577 54.694 49.3638C55.0032 49.4575 55.3218 49.5465 55.3968 49.5653C55.4765 49.584 56.0246 49.7433 56.615 49.9167C57.21 50.09 58.1142 50.3524 58.6296 50.5023C59.145 50.6522 60.1242 50.938 60.8082 51.1348C61.4923 51.3363 62.5886 51.6549 63.2445 51.8423C63.9005 52.0344 64.4674 52.1984 64.5049 52.2124C64.5845 52.2452 64.4955 52.3202 63.6615 52.962C63.1602 53.3509 61.9655 54.2833 60.3116 55.5811C59.9508 55.8669 59.3699 56.3213 59.0232 56.5884C58.6765 56.8601 58.1517 57.2677 57.8565 57.502C56.9289 58.2282 56.3104 58.7108 55.5374 59.3152C54.4879 60.1351 53.4571 60.9409 52.2765 61.8686C51.7189 62.3043 51.138 62.7541 50.988 62.8713C50.8381 62.9884 50.1634 63.5131 49.4934 64.0426C48.8188 64.572 47.8864 65.2982 47.4273 65.6543C46.9681 66.015 46.4527 66.418 46.2841 66.5491C45.6047 67.0879 44.841 67.6877 44.5833 67.8844C44.4334 68.0016 44.1898 68.189 44.0399 68.3061C43.8899 68.4232 43.4683 68.7512 43.0935 69.0417C42.7233 69.3322 41.7863 70.0631 41.0132 70.6721C40.2402 71.2765 39.3547 71.9699 39.0454 72.2089C38.4036 72.7055 35.9391 74.6358 34.9927 75.3808C34.3087 75.9149 34.0088 76.1538 32.4627 77.3579L31.4554 78.145L31.432 73.9096C31.4085 69.7632 31.4085 69.6695 31.3148 69.5477C31.1837 69.3743 31.0853 69.3228 30.2138 69.0276C25.6926 67.4815 21.1714 64.989 17.2826 61.892C16.8938 61.5828 16.6876 61.4095 15.9942 60.8191C13.3424 58.5468 10.728 55.656 8.60095 52.6341C8.45571 52.4279 8.27767 52.1749 8.20271 52.0719C8.13243 51.9688 7.81852 51.4815 7.50461 50.9943C5.35878 47.6115 3.71428 44.0086 2.62262 40.312C1.91516 37.9131 1.50286 35.7111 1.24986 33.0031C1.15615 31.991 1.17021 28.9082 1.27328 27.8493C1.66684 23.8669 2.74444 20.4748 4.59041 17.4013C8.66654 10.6124 16.2519 5.76794 25.88 3.80952C28.6162 3.25198 31.0853 2.98491 34.5945 2.87715C35.6112 2.84436 37.7429 2.90995 39.3359 3.02239L40.4182 3.10205L41.2475 2.61947C41.6973 2.3571 42.0627 2.13221 42.058 2.12284C42.0252 2.09473 41.4208 2.01039 40.7087 1.94011C38.2724 1.69648 35.1333 1.62152 32.8375 1.74802C30.9541 1.85578 28.9254 2.05724 27.8009 2.24465C25.449 2.6429 24.1558 2.92401 22.3427 3.44407C18.8288 4.45139 15.7974 5.76325 12.902 7.52957C10.5266 8.9773 7.87943 11.1981 6.2396 13.119C2.63668 17.3404 0.725114 21.8288 0.106666 27.5214C-0.010464 28.6083 -0.0385752 31.7521 0.0598142 32.9562C0.481483 38.1708 1.91516 43.095 4.44517 48.0426C5.06362 49.242 5.40095 49.8511 6.16933 51.1161C9.01793 55.8153 13.2346 60.4115 17.7746 63.7755C19.1708 64.8109 20.1828 65.4809 21.6633 66.3711C24.0809 67.8142 27.0607 69.2057 29.7547 70.138L30.2138 70.2973V74.9029C30.2138 78.7682 30.2232 79.5272 30.2794 79.6349C30.4481 79.9629 30.7714 80.0847 31.0572 79.9395C31.1462 79.8926 31.7787 79.4147 32.4627 78.8759C33.9901 77.6765 35.2364 76.702 35.644 76.3834C35.8126 76.2475 36.4264 75.7696 37.0074 75.3152C37.5883 74.8607 38.2583 74.336 38.4973 74.1486C38.7409 73.9658 39.097 73.6847 39.2937 73.5254C39.4905 73.3708 39.8185 73.1178 40.0153 72.9632C40.212 72.8133 40.9289 72.251 41.6082 71.7216C42.2876 71.1922 43.4261 70.302 44.1383 69.7445L45.4361 68.7325L45.8249 68.948C47.1602 69.6929 49.4279 70.9767 49.5497 71.0563C49.6481 71.1219 49.7746 71.061 51.7751 69.9412C52.9418 69.29 54.0334 68.6809 54.2021 68.5872C54.3707 68.4935 54.8955 68.1983 55.3734 67.9313C55.8513 67.6689 56.7462 67.1629 57.3646 66.8162C58.3813 66.2446 60.0117 65.3357 60.7379 64.9327C60.8926 64.8484 61.2533 64.647 61.5344 64.4877C62.181 64.1222 67.4237 61.1846 69.5227 60.0133C70.3848 59.5307 71.5374 58.8888 72.0762 58.5843C72.6196 58.2798 73.5988 57.7316 74.2548 57.3661C74.9107 57.0007 75.7681 56.5228 76.1523 56.3026C76.7473 55.9653 77.9467 55.2953 78.7526 54.8502C79.0149 54.7049 80.0457 54.1287 80.4064 53.9272L80.6735 53.7726V49.2232C80.6735 46.7167 80.6876 38.6159 80.7063 31.2227L80.7344 17.7714L80.3643 17.5606C79.7552 17.2139 67.5221 10.2142 63.6896 8.01683C61.7312 6.89707 59.6978 5.73045 59.1684 5.4306C58.639 5.13075 56.376 3.83294 54.1318 2.54919C51.8923 1.26544 49.9713 0.164419 49.8683 0.108196L49.6809 0.000437512L48.8609 0.483016ZM51.2832 3.43938C51.8267 3.62211 51.911 3.66427 52.1968 3.92196C52.7309 4.40454 52.6747 5.15417 52.075 5.61332C51.6252 5.95534 50.9693 6.12869 50.1353 6.13338C49.9385 6.13807 49.6996 6.16618 49.6106 6.19897C49.5169 6.22709 48.6642 6.70498 47.7131 7.25783C46.7573 7.806 45.7172 8.41039 45.3939 8.59311C45.0706 8.78052 44.2507 9.25373 43.5667 9.64729C42.8826 10.0408 42.2079 10.4344 42.0674 10.5141C40.9289 11.17 40.0528 11.676 39.0923 12.2382C38.4738 12.5943 37.682 13.0534 37.3353 13.2549C36.9886 13.4564 36.3702 13.8124 35.9626 14.0467C35.5596 14.281 34.9271 14.6464 34.557 14.8572C34.1916 15.0634 33.8449 15.2789 33.7886 15.3304L33.6856 15.4242L33.9526 15.5881C34.0979 15.6772 34.2853 15.7896 34.3696 15.8364C34.4492 15.8833 34.6039 15.9723 34.7069 16.0426C34.8147 16.1082 35.1145 16.2675 35.3769 16.4034L35.8595 16.6423L36.5201 16.6798C37.2229 16.7173 37.5836 16.8063 37.9913 17.0405C38.5488 17.3638 38.7643 17.6496 38.7596 18.0807C38.7549 18.9099 37.8039 19.4862 36.4451 19.4862C35.1333 19.4862 34.4399 19.0552 34.1962 18.0947C34.1681 17.9823 34.0979 17.8417 34.0416 17.7808C33.9854 17.7152 33.456 17.3873 32.861 17.0452C32.2706 16.7079 31.5397 16.2862 31.2446 16.1129C30.9494 15.9442 30.5652 15.7193 30.3919 15.6209C30.2138 15.5179 30.0733 15.4241 30.0733 15.4054C30.0733 15.3586 30.3591 15.1852 31.5257 14.5105C34.1869 12.9691 35.6299 12.1351 36.164 11.8259C37.8226 10.8608 38.4551 10.4953 38.6238 10.4016C38.7268 10.3454 38.9283 10.2283 39.0689 10.1439C39.3031 10.0034 39.7576 9.74099 42.3954 8.2183C42.8967 7.92782 43.8243 7.38902 44.4569 7.02357C45.0894 6.65812 45.8999 6.1896 46.2607 5.97877C47.5022 5.26193 47.7974 5.07921 47.8817 4.96208C47.9286 4.89649 47.9895 4.70908 48.0129 4.5451C48.041 4.38111 48.1113 4.17496 48.1675 4.08594C48.3268 3.847 48.7344 3.59868 49.2358 3.43002C49.6293 3.29883 49.7418 3.28009 50.229 3.28009C50.735 3.2754 50.8147 3.28946 51.2832 3.43938ZM56.1699 7.04699C57.3833 7.7404 59.3324 8.86017 61.675 10.2095C64.3221 11.7369 66.0603 12.7395 66.2431 12.8426C66.468 12.9738 68.7543 14.2856 69.4993 14.7167C69.8366 14.9088 70.8346 15.4851 71.7248 15.9957C72.6149 16.5064 73.8378 17.2092 74.4422 17.5559C75.0466 17.9026 75.9133 18.3993 76.3631 18.6569C77.5063 19.3082 78.2794 19.758 78.4761 19.8938C78.8275 20.1281 78.8041 19.4066 78.79 28.5146C78.776 36.6294 78.776 36.6763 78.6823 36.8028C78.6308 36.873 78.2185 37.1401 77.7687 37.3931C76.8738 37.9038 76.499 38.1193 75.0513 38.9626C72.9007 40.2183 72.5259 40.4291 72.4275 40.4291C72.3947 40.4291 72.3807 37.8804 72.3807 32.2534C72.3807 24.1386 72.3807 24.073 72.287 23.8903C72.1745 23.6701 72.1558 23.6561 70.7409 22.8549C70.1365 22.5129 69.3962 22.0959 69.101 21.9225C68.253 21.4259 65.2967 19.7392 65.1327 19.6549C65.0483 19.6127 64.5939 19.5143 64.1254 19.4347C62.6964 19.1957 62.2794 19.0036 62.0264 18.4789C61.7546 17.9167 62.0732 17.2982 62.8229 16.9468C63.6803 16.5392 64.5892 16.5158 65.4934 16.8719C66.1306 17.1202 66.4445 17.4482 66.5335 17.9542C66.6132 18.3758 66.6038 18.3711 68.2109 19.2988C68.506 19.4722 68.9511 19.7299 69.1947 19.8704C70.0615 20.3717 72.2261 21.618 72.9429 22.0209C73.8846 22.5503 74.0111 22.6441 74.0955 22.8361C74.1517 22.972 74.1611 24.0496 74.1611 30.1919C74.1611 34.1462 74.1704 37.3837 74.1845 37.3837C74.2641 37.3837 76.7332 35.9313 76.8691 35.8048L77.0284 35.6549L77.005 28.5146C76.9816 20.5826 77.0144 21.2713 76.6583 20.9293C76.5599 20.8309 76.26 20.6482 75.9977 20.517C75.5713 20.3061 75.07 20.025 73.0835 18.8771C72.2823 18.4133 70.6284 17.4622 68.8902 16.4643C68.0937 16.0051 67.0911 15.4288 66.6647 15.1852C66.2384 14.9416 65.1139 14.2903 64.1581 13.7468C63.2071 13.1987 62.0873 12.5521 61.675 12.3179C61.2627 12.0789 60.0633 11.3855 59.0044 10.7811C57.9502 10.1767 57.0038 9.62854 56.9101 9.57232C56.8117 9.51141 56.7227 9.45988 56.7134 9.45988C56.704 9.45988 56.3666 9.27247 55.9684 9.03821C55.5702 8.80864 55.1485 8.59312 55.036 8.56501L54.8252 8.50878L53.6117 9.20219C52.164 10.0315 49.5216 11.5589 48.4205 12.2054C47.9848 12.4631 47.6194 12.6927 47.61 12.7161C47.5959 12.763 48.294 13.1846 49.2358 13.7094C49.5637 13.8921 49.7324 13.9577 49.8683 13.9577C50.1306 13.9577 51.3863 14.1779 51.658 14.2669C52.5857 14.5855 52.9136 15.3492 52.4123 16.0426C51.733 16.9796 49.5028 17.1249 48.5517 16.2909C48.3221 16.0848 48.1816 15.8599 48.0879 15.5085C48.041 15.3492 47.952 15.1618 47.8817 15.0915C47.8161 15.0212 47.3382 14.7214 46.8229 14.4262C44.499 13.0956 43.9274 12.7536 43.9602 12.6974C43.993 12.6505 44.4756 12.3647 47.7833 10.4531C50.5055 8.8836 53.3915 7.20629 54.0849 6.79868C54.6378 6.47071 54.8018 6.40981 55.022 6.44729C55.1016 6.46134 55.617 6.7284 56.1699 7.04699ZM55.8653 11.4042C56.2823 11.512 56.6056 11.676 56.8399 11.8915C57.0554 12.093 57.1491 12.2663 57.2662 12.6927C57.3084 12.8379 57.388 13.0019 57.4442 13.0581C57.552 13.1565 58.6765 13.8265 60.1991 14.6933C61.08 15.1946 61.3705 15.3773 61.3705 15.4148C61.3705 15.4288 61.2065 15.5319 61.0097 15.6444C60.8082 15.7568 60.0117 16.216 59.2387 16.6657C57.9362 17.4247 54.4926 19.4206 53.5227 19.9782C52.0937 20.7981 52.2202 20.7137 52.3327 20.8028C52.3889 20.8449 52.7637 21.0698 53.1667 21.3041C53.5696 21.5337 54.8158 22.2599 55.9356 22.9064C57.8003 23.9887 58.8451 24.5884 60.9254 25.7878C64.6735 27.943 64.6688 27.943 64.7719 28.0976C64.8562 28.2148 64.8609 28.3975 64.889 31.0353C64.9172 33.6543 64.9125 33.8604 64.8375 34.0385C64.7344 34.2727 64.7204 34.2868 63.4554 35.0036C61.0331 36.3764 56.8914 38.7752 56.54 39.0048C56.362 39.1266 56.2495 39.2672 55.8841 39.8388C55.3921 40.6071 54.783 41.0429 54.1552 41.0757C53.6633 41.1038 53.3541 40.8976 53.1432 40.401C52.9699 39.9981 53.0729 39.1266 53.3587 38.5457C53.9772 37.2994 55.0126 36.6809 55.8794 37.0417C55.9778 37.0839 56.1043 37.0979 56.1933 37.0839C56.2729 37.0651 57.0132 36.6622 57.8378 36.1843C58.6577 35.7017 60.0492 34.9006 60.9254 34.3992C62.9353 33.2467 62.9634 33.2279 63.0337 33.0546C63.1133 32.8625 63.104 29.3533 63.0243 29.208C62.9213 29.0253 62.7338 28.9035 60.9722 27.8962C56.0012 25.0476 49.6949 21.4165 49.0249 21.0183C48.5049 20.7091 48.5002 20.7606 49.0999 20.4139C49.9901 19.9079 52.3186 18.5586 52.8902 18.2212C53.1854 18.0479 53.7898 17.6965 54.2255 17.4482C54.6659 17.1952 55.3265 16.811 55.7013 16.5908C56.0762 16.3752 56.6806 16.0239 57.046 15.813C57.4161 15.6069 57.716 15.4195 57.716 15.4054C57.716 15.382 56.9008 14.8947 55.8419 14.295C55.6545 14.1873 55.5608 14.1685 54.9283 14.1404C54.174 14.1029 53.8694 14.0373 53.4665 13.8312C52.8059 13.4985 52.4967 12.8801 52.7216 12.3413C52.9136 11.8821 53.5087 11.4979 54.2255 11.3621C54.6753 11.2731 55.4483 11.2965 55.8653 11.4042ZM41.9409 14.0748C42.3672 14.1919 42.7186 14.37 42.9623 14.5996C43.2246 14.8432 43.3324 15.0493 43.3324 15.3023C43.3324 15.4897 43.4261 15.6631 43.5854 15.7849C43.6369 15.8224 43.9227 15.9957 44.2226 16.1644C45.0753 16.6517 46.94 17.7246 47.1977 17.8792C47.3289 17.9542 47.432 18.0432 47.432 18.076C47.432 18.1088 47.0337 18.3711 46.5418 18.6523C46.0545 18.9381 45.4501 19.2848 45.2065 19.4253C44.9629 19.5706 44.3491 19.9219 43.8478 20.2124C43.3465 20.5029 42.6718 20.8965 42.3485 21.0792C40.8586 21.946 38.2864 23.4265 34.9693 25.3287C34.0932 25.8347 33.3201 26.2845 33.2545 26.3313C32.9781 26.5281 32.9921 26.2329 32.9593 32.2534C32.9406 35.2941 32.9172 37.7866 32.9078 37.796C32.8984 37.8101 32.608 37.6508 32.2659 37.454C31.9239 37.2525 31.4226 36.9621 31.1509 36.8074C30.8791 36.6528 29.7406 35.9969 28.6208 35.3457C27.5011 34.6944 26.3626 34.0385 26.0908 33.8839C24.273 32.8484 22.3427 31.738 22.2162 31.6537C21.8929 31.4382 21.9163 31.8833 21.921 25.8253V20.353L22.0288 20.1422C22.1412 19.9079 22.1459 19.9079 23.5608 19.1114C23.9872 18.8725 24.4276 18.6195 24.5447 18.5492C24.6618 18.4789 24.9758 18.2962 25.2475 18.1416C25.5192 17.9823 26.0346 17.6824 26.3907 17.4763C26.8217 17.228 27.0935 17.0968 27.1872 17.0968C27.2809 17.0968 27.5104 17.1998 27.8244 17.3826C30.2138 18.7788 30.9541 19.1864 31.1837 19.2426C31.282 19.2707 31.596 19.3035 31.8771 19.3176C32.8188 19.3691 33.367 19.5612 33.7699 19.9688C34.0369 20.2359 34.126 20.442 34.126 20.7747C34.1213 21.5946 33.1983 22.1615 31.8536 22.1662C30.5746 22.1755 29.8015 21.7117 29.5579 20.7981C29.4689 20.4654 29.3705 20.3717 28.7567 20.0297C28.4381 19.8517 28.0071 19.5987 27.8009 19.4675C27.2621 19.1255 27.1684 19.1301 26.4422 19.5659C26.133 19.7486 25.4396 20.1515 24.8961 20.4607C24.1793 20.8637 23.8841 21.0605 23.8091 21.1729L23.7014 21.3275V25.7597C23.7014 30.8947 23.6498 30.3887 24.2167 30.726C25.3646 31.4007 26.9623 32.3284 28.6443 33.2935C29.7031 33.9026 30.6683 34.4602 30.7948 34.5351C30.9166 34.6101 31.0478 34.6663 31.0853 34.6569C31.1415 34.6429 31.1509 33.9588 31.1649 30.1685C31.1743 25.2022 31.1509 25.5817 31.4882 25.2678C31.6147 25.1506 32.9125 24.3916 36.0938 22.5785C36.1734 22.5316 36.9746 22.0678 37.8741 21.5477C38.7784 21.023 39.8513 20.4045 40.2636 20.1656C43.3511 18.3899 43.726 18.1744 43.7915 18.1088C43.8384 18.0619 43.7025 17.9635 43.1262 17.6215C42.7327 17.3873 42.222 17.1015 42.0018 16.9984C41.5989 16.8063 41.5848 16.8016 40.9289 16.7688C40.4135 16.7407 40.2027 16.7126 39.9918 16.6329C39.453 16.4221 38.9939 16.0988 38.8487 15.813C38.7409 15.6116 38.7456 15.1946 38.858 14.965C39.1017 14.4684 39.6545 14.1591 40.615 13.9858C40.8352 13.9436 41.6691 14.0045 41.9409 14.0748ZM60.2929 19.3691C60.7567 19.4675 61.3049 19.7064 61.5251 19.9032C61.7312 20.0906 61.8624 20.3202 61.9139 20.5872C61.9795 20.9574 62.1107 21.112 62.5652 21.3744C62.7198 21.4587 63.4038 21.8616 64.0879 22.2599C65.3904 23.0236 66.9974 23.9512 68.4311 24.7665C69.012 25.0991 69.3166 25.3006 69.3915 25.4036L69.4993 25.5536L69.5368 33.7246C69.5696 41.4926 69.5696 41.9003 69.4899 42.0642C69.4196 42.2001 69.3025 42.2891 68.8668 42.5421C68.2109 42.917 66.0135 44.182 65.2123 44.6458C64.1628 45.2549 62.4434 46.2435 61.5344 46.7635C61.0003 47.068 60.574 47.3445 60.4709 47.4569C60.3116 47.6209 60.2929 47.6678 60.2929 47.8786C60.2929 48.0191 60.2741 48.1128 60.2413 48.1128C60.1851 48.1128 58.8639 47.8973 58.6437 47.8505L58.5125 47.8224V47.2883C58.5125 46.712 58.5593 46.5199 58.7514 46.3512C58.8873 46.2294 61.8483 44.5006 65.9151 42.172C67.1754 41.4505 67.5549 41.2162 67.6346 41.0897L67.7423 40.9304V33.837C67.7423 26.2891 67.7517 26.5609 67.5268 26.3688C67.4753 26.3266 67.0161 26.0502 66.5008 25.755C65.9854 25.4552 64.8375 24.7993 63.9473 24.2886C60.0024 22.0256 60.5974 22.3067 59.2855 22.0865C58.2688 21.9178 57.9034 21.782 57.6129 21.4634C57.4021 21.2291 57.3599 21.1495 57.3177 20.9058C57.2006 20.1796 57.8753 19.5846 59.0981 19.3269C59.323 19.2801 59.9883 19.3035 60.2929 19.3691ZM47.6896 23.4921C48.6033 24.0121 49.7558 24.6728 50.2431 24.9539C50.735 25.235 51.9251 25.9237 52.8902 26.4766C53.8554 27.0341 55.1204 27.7603 55.7013 28.093C56.2823 28.4303 56.7555 28.7301 56.7555 28.7629C56.7555 28.8004 56.5119 28.9691 56.2167 29.1378C55.9216 29.3111 54.9611 29.8593 54.0849 30.3653C53.2088 30.8713 52.417 31.3257 52.328 31.3773C52.239 31.4288 52.0563 31.5319 51.9251 31.6069C51.7986 31.6771 50.646 32.3331 49.3716 33.064C47.5257 34.1228 47.0337 34.4227 46.9587 34.5398C46.8744 34.685 46.8697 34.8584 46.8557 40.2511C46.851 43.3152 46.8276 45.8171 46.8088 45.8171C46.7901 45.8171 46.3965 45.7047 45.9327 45.5688L45.0894 45.3252L45.0753 39.5155C45.0706 35.4253 45.08 33.6683 45.1175 33.584C45.1456 33.5137 45.2252 33.406 45.2908 33.3404C45.3611 33.2795 46.4527 32.6329 47.7131 31.9161C48.9781 31.1946 50.4961 30.3231 51.0864 29.9811C51.6814 29.6438 52.3889 29.2315 52.6653 29.0722C52.9418 28.9175 53.1713 28.777 53.1713 28.7583C53.1713 28.7442 53.0167 28.6505 52.834 28.5427C52.5154 28.3647 51.9907 28.0648 49.4232 26.5843C48.8937 26.2798 47.9473 25.7316 47.3148 25.3662C45.9139 24.5556 45.8999 24.5462 45.7359 24.5462C45.6609 24.5462 45.422 24.654 45.1831 24.7993C44.9535 24.9351 44.5084 25.1975 44.1992 25.3802C43.5854 25.741 43.4683 25.8628 43.3746 26.2564C43.2949 26.589 43.2246 26.7108 42.9857 26.9217C42.4422 27.3995 41.4864 27.6385 40.6618 27.4979C39.6732 27.334 39.0735 26.9685 38.9049 26.4438C38.7737 26.0221 38.8721 25.6004 39.1672 25.3053C39.4671 25.0007 39.7904 24.893 40.9383 24.7055C41.3599 24.64 41.791 24.5603 41.8987 24.5275C42.0065 24.4947 42.8311 24.0449 43.74 23.5249C44.6489 23.0048 45.4595 22.5597 45.5438 22.5363C45.6281 22.5129 45.7734 22.5035 45.8624 22.5129C45.9514 22.5269 46.7573 22.958 47.6896 23.4921ZM36.5107 32.5064C36.8246 32.6845 37.6164 33.1389 38.2724 33.5184C38.9283 33.8979 39.528 34.2399 39.603 34.2821C39.8185 34.3946 40.109 34.4086 40.3526 34.3149C40.8492 34.1228 41.4724 34.3571 42.0955 34.9708C42.55 35.4253 42.817 35.9126 42.9388 36.5357C43.0372 37.0464 43.0138 37.6133 42.8779 37.8757C42.6765 38.2599 42.4047 38.4238 41.9737 38.4238C41.6785 38.4238 41.4208 38.3254 41.1538 38.1146C40.9101 37.9272 40.9664 37.9834 40.2027 37.1167C39.8372 36.6997 39.4718 36.3108 39.3875 36.2499C39.3031 36.1937 38.8768 35.936 38.4364 35.6877C37.8835 35.3738 37.6305 35.252 37.6071 35.2894C37.5883 35.3222 37.5696 37.0886 37.5696 39.2203C37.5696 42.9638 37.5649 43.0997 37.4806 43.0997C37.4337 43.0997 37.1854 43.0388 36.9324 42.9591C36.6794 42.8842 36.314 42.7811 36.1312 42.7249L35.7892 42.6265V38.8174C35.7892 34.4695 35.8267 32.1831 35.897 32.1831C35.9251 32.1831 36.2015 32.3284 36.5107 32.5064ZM23.0923 35.4206C23.7248 35.7814 24.6853 36.3342 25.2241 36.6435C25.7676 36.9527 26.4703 37.3603 26.7936 37.5477C27.9883 38.2458 31.2258 40.1199 31.432 40.2323C31.5491 40.2979 31.8911 40.4947 32.1957 40.6727C32.6829 40.9585 32.7626 41.0241 32.8422 41.1928C32.8891 41.3006 32.9312 41.4786 32.9312 41.591C32.9312 41.7644 32.9172 41.7925 32.8516 41.7691C32.8047 41.755 32.3643 41.6285 31.8724 41.488C31.3757 41.3427 30.8838 41.2256 30.776 41.2256C30.6027 41.2256 30.5511 41.2537 30.3965 41.413L30.2138 41.6004L29.2908 41.071C27.9274 40.2839 26.4516 39.4358 24.882 38.5269C24.3339 38.2083 23.8372 37.9366 23.7717 37.9178L23.6545 37.8897V42.1392V46.3934L23.9169 46.6885C24.0621 46.8525 24.1558 46.9884 24.1324 46.9884C24.0621 46.9884 23.3781 46.4309 22.6941 45.8124C21.5134 44.7489 20.6513 43.7884 19.7283 42.5047C19.2926 41.8956 19.2223 41.7878 19.2973 41.7878C19.3441 41.7878 19.0162 41.1319 18.632 40.4385C18.4727 40.1527 18.4774 40.0777 18.6413 40.3026C18.7023 40.3823 19.0068 40.7571 19.3207 41.1319C21.3916 43.6385 21.8086 44.1304 21.8367 44.1304C21.8601 44.1304 21.8741 42.0221 21.8741 39.4452C21.8741 36.8683 21.8882 34.76 21.9116 34.76C21.9304 34.76 22.4598 35.0552 23.0923 35.4206ZM78.8041 40.5088C78.8088 40.7102 78.8228 42.9076 78.8416 45.3954C78.8744 50.4273 78.8463 50.0291 79.1977 50.3571C79.2914 50.4414 79.4413 50.6569 79.5303 50.835C79.788 51.355 79.7458 51.8095 79.3382 52.6903C78.9072 53.6227 78.1482 54.2692 77.3985 54.3301C77.1034 54.3535 77.0518 54.3442 76.8597 54.2317C76.6349 54.1005 76.4147 53.8194 76.3256 53.5524C76.1804 53.1354 76.3397 52.3389 76.7145 51.6127C77.0753 50.9052 77.0659 51.0786 77.0659 46.9041C77.0659 44.866 77.0565 43.1934 77.0425 43.1934C76.9862 43.1934 76.4802 43.4698 75.6369 43.9571C75.1496 44.2429 74.3344 44.7114 73.8331 44.9972C73.3318 45.2877 72.2354 45.9155 71.3968 46.3981C70.5066 46.9088 69.8132 47.3398 69.7242 47.4335L69.5696 47.5975V48.6844C69.5696 49.3216 69.593 49.8511 69.6211 49.9588C69.6539 50.0853 69.7663 50.2352 69.9912 50.4508C70.4316 50.8818 70.4879 51.1208 70.3379 51.9126C70.1224 53.0511 69.1854 54.1802 68.3139 54.3442C67.8735 54.4238 67.316 54.1896 67.1426 53.8429C66.9271 53.4165 66.9786 53.0089 67.3956 51.8282C67.8126 50.6522 67.7892 50.8631 67.7892 48.572V46.5199L67.9204 46.384C67.9906 46.3137 68.923 45.7515 69.9912 45.1377C71.0595 44.5287 72.4229 43.7462 73.0132 43.3995C77.1455 41.0054 78.6448 40.1527 78.7198 40.148C78.79 40.148 78.7994 40.1995 78.8041 40.5088ZM74.489 47.635C74.8873 47.8786 75.0934 48.3424 75.0278 48.8531C74.981 49.2373 74.7889 49.8183 74.5874 50.2025C74.2313 50.8631 74.2407 50.7881 74.236 53.1776L74.2313 55.3234L74.0955 55.4639C74.0158 55.5436 73.7207 55.7451 73.4395 55.9044C72.4603 56.4666 68.7731 58.5843 66.3368 59.9899C65.8355 60.2757 65.0671 60.7207 64.6267 60.9737C64.1909 61.2267 63.3898 61.6906 62.8463 62.0045C62.3075 62.3184 61.2814 62.9087 60.574 63.3164C59.8665 63.724 59.0419 64.1972 58.7467 64.3705C58.4516 64.5439 57.8659 64.8812 57.4442 65.1248C57.0226 65.3685 56.5962 65.6449 56.4931 65.7433C56.3948 65.8417 56.1746 66.1275 56.0106 66.3758C55.706 66.8396 55.3265 67.2519 55.0642 67.4112C54.7877 67.5799 54.2489 67.7954 53.9866 67.8423C53.429 67.9453 52.7684 67.7111 52.3186 67.2519C51.8173 66.7412 51.5643 66.0947 51.5643 65.3076C51.5596 64.23 52.0563 63.3398 52.8809 62.9322C53.2229 62.7635 53.2604 62.7541 53.7101 62.7541C54.1459 62.7541 54.2021 62.7635 54.4832 62.9041C54.6519 62.9884 54.9283 63.1805 55.1016 63.3351C55.275 63.485 55.4905 63.6349 55.5842 63.6677C55.7857 63.7333 56.1324 63.7005 56.4182 63.5881C56.5915 63.5178 58.4094 62.5011 58.5359 62.4027C58.564 62.384 59.0138 62.1263 59.5432 61.8311C60.0726 61.5313 60.8082 61.1143 61.183 60.8941C61.5579 60.6739 62.4199 60.1726 63.104 59.779C63.788 59.3808 64.7157 58.8467 65.1655 58.5843C65.8355 58.1907 69.34 56.1808 71.7201 54.8221C72.0668 54.6206 72.2823 54.466 72.3432 54.3723C72.4229 54.2364 72.4275 54.1427 72.4182 53.0557C72.4041 51.7392 72.4088 51.7673 72.0387 51.3878C71.7622 51.1067 71.7013 50.8959 71.706 50.2446C71.7107 49.8183 71.7294 49.673 71.8325 49.3872C71.9965 48.914 72.2073 48.5814 72.5728 48.2159C73.2756 47.5085 73.9549 47.3023 74.489 47.635Z" fill="black"/>
<path d="M82.7353 28.4586C82.7353 28.5101 82.7353 29.1707 82.7353 29.925C82.74 31.1947 82.7447 31.3166 82.8337 31.5414C83.2413 32.5675 83.8176 34.4931 84.0706 35.6738C84.4314 37.3558 84.6609 39.2018 84.6516 40.3309V40.7338L84.4267 40.0545C84.169 39.2767 83.8223 38.4006 83.5224 37.7587C83.157 36.9763 82.7634 36.2126 82.726 36.2126C82.7025 36.2126 82.6885 36.7936 82.6885 37.501V38.7848L82.8337 39.1502C83.7473 41.4225 84.2018 43.7886 84.1222 45.8641C84.0894 46.7309 84.1034 46.7965 84.3752 46.9792C84.511 47.0729 84.5766 47.087 84.75 47.0635C85.1623 47.0073 85.2325 46.8621 85.4715 45.5596C86.3992 40.4855 85.6823 35.0179 83.4006 29.7939C82.9743 28.8193 82.7447 28.3555 82.7353 28.4586Z" fill="black"/>
</svg>
